<?xml version="1.0" encoding="UTF-8" standalone="no"?>
<!-- Created with Inkscape (http://www.inkscape.org/) -->

<svg
   width="33"
   height="42.045231"
   viewBox="0 0 8.73125 11.124467"
   version="1.1"
   id="svg1"
   xml:space="preserve"
   xmlns:xlink="http://www.w3.org/1999/xlink"
   xmlns="http://www.w3.org/2000/svg"
   xmlns:svg="http://www.w3.org/2000/svg"><defs
     id="defs1"><linearGradient
       id="linearGradient301"><stop
         style="stop-color:#ffffff;stop-opacity:1;"
         offset="0.68779135"
         id="stop300" /><stop
         style="stop-color:#b2b2b2;stop-opacity:1;"
         offset="0.68779135"
         id="stop301" /></linearGradient><radialGradient
       xlink:href="#linearGradient301"
       id="radialGradient177"
       gradientUnits="userSpaceOnUse"
       gradientTransform="matrix(1.3062652,0,0,1.1740965,-108.88531,-22.505786)"
       cx="387.76566"
       cy="184.43718"
       fx="387.76566"
       fy="184.43718"
       r="3.7980435" /></defs><g
     id="layer6"
     style="display:inline"
     transform="translate(-173.43438,-78.172403)"><g
       id="g173"
       transform="matrix(1.0449459,0,0,1.0449459,-237.71176,-119.09554)"
       style="display:inline;stroke-width:0.999961;stroke-dasharray:none;paint-order:fill markers stroke"><path
         id="path172"
         style="fill:#8a90a8;fill-opacity:1;stroke:#434a5f;stroke-width:0.759609;stroke-linecap:round;stroke-linejoin:round;stroke-miterlimit:0;stroke-dasharray:none"
         d="m 396.07574,196.58491 h 3.1275 c 0,0 0,1.29309 0,1.68231 0,1.0425 -3.1275,1.0425 -3.1275,0 0,-0.57456 0,-1.68231 0,-1.68231 z" /><ellipse
         style="fill:url(#radialGradient177);stroke:#434a5f;stroke-width:0.759609;stroke-linecap:round;stroke-linejoin:round;stroke-miterlimit:0;stroke-dasharray:none;stroke-opacity:1;paint-order:normal"
         id="ellipse172"
         cx="397.6395"
         cy="194.79788"
         rx="3.7980435"
         ry="3.0697258" /><path
         d="m 398.00936,196.58492 -0.4929,-0.89466 h -0.13842 v 0.89466 h -0.5773 v -2.36998 h 0.96892 q 0.28022,0 0.47603,0.0979 0.19918,0.0979 0.29709,0.27008 0.0979,0.16881 0.0979,0.37812 0,0.23632 -0.13504,0.422 -0.13166,0.18569 -0.39162,0.26334 l 0.54692,0.93854 z m -0.63132,-1.30316 h 0.35786 q 0.15868,0 0.23633,-0.0777 0.081,-0.0776 0.081,-0.21944 0,-0.13504 -0.081,-0.21269 -0.0777,-0.0777 -0.23633,-0.0777 h -0.35786 z"
         id="text173"
         style="-inkscape-font-specification:'Poppins Bold';fill:#434a5f;stroke-width:0.759609;stroke-linecap:round;stroke-linejoin:round;stroke-miterlimit:0;paint-order:stroke fill markers"
         aria-label="R" /><path
         id="path173"
         style="fill:#ff8335;stroke:#434a5f;stroke-width:1.21537;stroke-linecap:round;stroke-linejoin:round;stroke-miterlimit:0;stroke-dasharray:none;stroke-opacity:1;paint-order:stroke fill markers"
         d="m 397.63949,193.29608 2.03698,-2.10191 h -0.88119 v -1.80356 h -2.31158 v 1.80356 h -0.88119 z" /></g></g></svg>
