<?xml version="1.0" encoding="UTF-8" standalone="no"?>
<!-- Created with Inkscape (http://www.inkscape.org/) -->

<svg
   width="47.999828"
   height="47.999828"
   viewBox="0 0 12.699955 12.699954"
   version="1.1"
   id="svg1"
   xml:space="preserve"
   xmlns:xlink="http://www.w3.org/1999/xlink"
   xmlns="http://www.w3.org/2000/svg"
   xmlns:svg="http://www.w3.org/2000/svg"><defs
     id="defs1"><linearGradient
       id="linearGradient301"><stop
         style="stop-color:#ffffff;stop-opacity:1;"
         offset="0.68779135"
         id="stop300" /><stop
         style="stop-color:#b2b2b2;stop-opacity:1;"
         offset="0.68779135"
         id="stop301" /></linearGradient><radialGradient
       xlink:href="#linearGradient301"
       id="radialGradient542"
       gradientUnits="userSpaceOnUse"
       gradientTransform="matrix(1.3210463,-1.485635e-4,1.6897385e-4,1.5025378,-124.79435,-96.679263)"
       cx="388.60379"
       cy="191.03438"
       fx="388.60379"
       fy="191.03438"
       r="5.3493915" /></defs><g
     id="g583"
     style="display:inline"
     transform="translate(-76.200072,-152.4)"><g
       id="g474"
       style="display:inline;paint-order:fill markers stroke"
       transform="matrix(1.1870466,0,0,1.1870466,-378.74641,-69.620757)"><circle
         style="fill:url(#radialGradient542);stroke:#434a5f;stroke-width:0.999961;stroke-linecap:round;stroke-linejoin:round;stroke-dasharray:none;stroke-dashoffset:0;stroke-opacity:1;paint-order:fill markers stroke"
         id="circle474"
         cx="388.60855"
         cy="192.38565"
         r="4.849411" /><path
         d="m 389.54171,191.88637 q 0.36257,0.0773 0.58249,0.36258 0.21992,0.27935 0.21992,0.64192 0,0.52306 -0.36852,0.83214 -0.36257,0.30313 -1.01639,0.30313 h -1.94361 v -4.17254 h 1.87823 q 0.63599,0 0.99262,0.29124 0.36257,0.29125 0.36257,0.79053 0,0.36851 -0.19615,0.61221 -0.1902,0.24369 -0.51116,0.33879 z m -1.50973,-0.34474 h 0.66571 q 0.24964,0 0.3804,-0.10698 0.13671,-0.11294 0.13671,-0.32691 0,-0.21398 -0.13671,-0.32691 -0.13076,-0.11293 -0.3804,-0.11293 h -0.66571 z m 0.74892,1.66427 q 0.25558,0 0.39229,-0.11294 0.14265,-0.11887 0.14265,-0.33879 0,-0.21992 -0.14859,-0.34474 -0.14265,-0.12482 -0.39824,-0.12482 h -0.73703 v 0.92129 z"
         id="text474"
         style="-inkscape-font-specification:'Poppins Bold';fill:#fc551d;stroke-width:1.99061;stroke-linecap:round;stroke-linejoin:round;stroke-dasharray:3.98122, 1.99061"
         aria-label="B" /></g></g></svg>
