<?xml version="1.0" encoding="UTF-8" standalone="no"?>
<!-- Created with Inkscape (http://www.inkscape.org/) -->

<svg
   width="42.8064"
   height="23.635603"
   viewBox="0 0 11.32586 6.2535866"
   version="1.1"
   id="svg1"
   xml:space="preserve"
   xmlns="http://www.w3.org/2000/svg"
   xmlns:svg="http://www.w3.org/2000/svg"><defs
     id="defs1" /><g
     id="layer5"
     style="display:inline"
     transform="translate(-102.17491,-279.4)"><g
       id="g926"
       style="display:inline"
       transform="translate(28.047156,60.489121)"><rect
         style="fill:#ffffff;fill-opacity:1;stroke:#434a5f;stroke-width:1.05833;stroke-linecap:round;stroke-linejoin:round;stroke-miterlimit:0;stroke-dasharray:none;stroke-opacity:1;paint-order:fill markers stroke"
         id="rect923"
         width="5.1737056"
         height="10.267574"
         x="-224.28497"
         y="75.595535"
         rx="2.5868528"
         ry="2.5868528"
         transform="rotate(-89.757604)" /><path
         d="m 104.03662,270.6299 q -0.27885,0 -0.4611,-0.12954 -0.18004,-0.13175 -0.19541,-0.38425 h 0.51818 q 0.011,0.13394 0.11857,0.13394 0.0395,0 0.0659,-0.0176 0.0285,-0.0198 0.0285,-0.0593 0,-0.0549 -0.0593,-0.0878 -0.0593,-0.0351 -0.18444,-0.079 -0.14931,-0.0527 -0.24811,-0.10319 -0.0966,-0.0505 -0.16688,-0.14712 -0.0703,-0.0966 -0.0681,-0.24811 0,-0.1515 0.0768,-0.2569 0.079,-0.10759 0.21298,-0.16248 0.13613,-0.0549 0.3052,-0.0549 0.28544,0 0.45232,0.13174 0.16906,0.13174 0.17785,0.37107 h -0.52478 q -0.002,-0.0659 -0.0329,-0.0944 -0.0307,-0.0285 -0.0747,-0.0285 -0.0307,0 -0.0505,0.022 -0.0198,0.0198 -0.0198,0.0571 0,0.0527 0.0571,0.0878 0.0593,0.0329 0.18664,0.0812 0.14711,0.0549 0.24152,0.10539 0.0966,0.0505 0.16688,0.14053 0.0703,0.09 0.0703,0.22615 0,0.14272 -0.0703,0.2569 -0.0703,0.11198 -0.2042,0.17566 -0.13394,0.0637 -0.31838,0.0637 z m 2.03637,-1.56992 v 0.38644 h -0.41279 v 1.16811 h -0.48744 v -1.16811 h -0.4084 v -0.38644 z m 0.67065,0.38864 v 0.19102 h 0.48306 v 0.36668 h -0.48306 v 0.21957 h 0.54893 v 0.38864 h -1.03637 v -1.55455 h 1.03637 v 0.38864 z m 1.78167,0.93097 h -0.51818 l -0.0769,0.23494 h -0.5116 l 0.56869,-1.55455 h 0.5621 l 0.56649,1.55455 h -0.5138 z m -0.11856,-0.36668 -0.14053,-0.43255 -0.14052,0.43255 z m 2.739,-0.95293 v 1.55455 h -0.48525 v -0.77508 l -0.23933,0.77508 h -0.41719 l -0.23933,-0.77508 v 0.77508 h -0.48744 v -1.55455 h 0.59723 l 0.34253,0.93317 0.33374,-0.93317 z"
         id="text928"
         style="-inkscape-font-specification:'Poppins Heavy';fill:#434a5f;stroke-width:0.79375;stroke-linecap:square;stroke-linejoin:round;stroke-miterlimit:2.66;paint-order:stroke fill markers"
         transform="translate(-27.472243,-47.794087)"
         aria-label="STEAM" /></g></g></svg>
