<?xml version="1.0" encoding="UTF-8" standalone="no"?>
<!-- Created with Inkscape (http://www.inkscape.org/) -->

<svg
   width="39.999992"
   height="46.000046"
   viewBox="0 0 10.583331 12.170845"
   version="1.1"
   id="svg1"
   xml:space="preserve"
   xmlns:xlink="http://www.w3.org/1999/xlink"
   xmlns="http://www.w3.org/2000/svg"
   xmlns:svg="http://www.w3.org/2000/svg"><defs
     id="defs1"><linearGradient
       id="linearGradient1"><stop
         style="stop-color:#434a5f;stop-opacity:1;"
         offset="1"
         id="stop111" /><stop
         style="stop-color:#434a5f;stop-opacity:1;"
         offset="1"
         id="stop112" /></linearGradient><linearGradient
       id="linearGradient103"><stop
         style="stop-color:#434a5f;stop-opacity:1;"
         offset="1"
         id="stop103" /><stop
         style="stop-color:#434a5f;stop-opacity:1;"
         offset="1"
         id="stop104" /></linearGradient><linearGradient
       id="linearGradient301"><stop
         style="stop-color:#ffffff;stop-opacity:1;"
         offset="0.68779135"
         id="stop300" /><stop
         style="stop-color:#b2b2b2;stop-opacity:1;"
         offset="0.68779135"
         id="stop301" /></linearGradient><linearGradient
       xlink:href="#linearGradient301"
       id="linearGradient329"
       gradientUnits="userSpaceOnUse"
       x1="398.78177"
       y1="117.41906"
       x2="398.78177"
       y2="119.43993" /><linearGradient
       xlink:href="#linearGradient1"
       id="linearGradient70"
       x1="389.96683"
       y1="115.27421"
       x2="400.22928"
       y2="115.27421"
       gradientUnits="userSpaceOnUse" /><linearGradient
       xlink:href="#linearGradient103"
       id="linearGradient909"
       x1="156.69949"
       y1="-4.1895838"
       x2="163.19427"
       y2="-4.1895838"
       gradientUnits="userSpaceOnUse" /></defs><g
     id="g585"
     style="display:inline"
     transform="translate(-12.699998,-266.7)"><g
       id="g324"
       transform="matrix(1,0,0,-1,-141.83669,276.92985)"
       style="display:inline"><path
         id="path321"
         style="fill:url(#linearGradient329);stroke:url(#linearGradient70);stroke-width:1;stroke-linecap:round;stroke-linejoin:round;stroke-dasharray:none;paint-order:fill markers stroke"
         d="m 394.61439,109.8733 h 0.96732 a 4.1475594,4.1475594 45 0 1 4.14756,4.14756 v 4.56856 a 2.085702,2.085702 135 0 1 -2.0857,2.0857 h -5.09104 a 2.085702,2.085702 45 0 1 -2.0857,-2.0857 l 0,-4.56856 a 4.1475594,4.1475594 135 0 1 4.14756,-4.14756 z"
         transform="matrix(1.0312685,0,0,-1.0312685,-247.62382,123.02309)" /><path
         d="m 158.72021,-2.0842078 -0.82409,-1.4957766 h -0.23143 v 1.4957766 h -0.96519 v -3.962397 h 1.61995 q 0.46849,0 0.79587,0.1636888 0.33302,0.1636888 0.49671,0.4515552 0.16369,0.282222 0.16369,0.6321773 0,0.3951108 -0.22578,0.705555 -0.22014,0.3104442 -0.65476,0.4402664 l 0.9144,1.5691543 z m -1.05552,-2.1787539 h 0.59832 q 0.26528,0 0.39511,-0.1298221 0.13546,-0.1298221 0.13546,-0.3668886 0,-0.2257776 -0.13546,-0.3555997 -0.12983,-0.1298222 -0.39511,-0.1298222 h -0.59832 z m 2.69607,1.4054656 q 0.19191,-0.1523999 0.17497,-0.141111 0.55316,-0.4571996 0.86925,-0.7507105 0.32173,-0.2935109 0.54186,-0.615244 0.22014,-0.3217331 0.22014,-0.6265329 0,-0.231422 -0.10725,-0.3612441 -0.10724,-0.1298222 -0.32173,-0.1298222 -0.21449,0 -0.33867,0.1636888 -0.11853,0.1580443 -0.11853,0.4515552 h -0.93133 q 0.0113,-0.4797774 0.2032,-0.8015105 0.19755,-0.3217331 0.51364,-0.474133 0.32174,-0.1523998 0.7112,-0.1523998 0.67169,0 1.01036,0.3443108 0.34431,0.3443109 0.34431,0.897466 0,0.6039551 -0.41205,1.1232436 -0.41204,0.513644 -1.04986,1.0047103 h 1.524 v 0.7845772 h -2.83351 z"
         id="text321"
         style="font-weight:bold;font-size:5.64444px;font-family:Poppins;-inkscape-font-specification:'Poppins Bold';text-align:center;letter-spacing:0.110906px;text-anchor:middle;fill:url(#linearGradient909);stroke-width:0.670673;stroke-linecap:round;stroke-linejoin:round;paint-order:fill markers stroke"
         transform="scale(1,-1)"
         aria-label="R2" /></g></g></svg>
