<?xml version="1.0" encoding="UTF-8" standalone="no"?>
<!-- Created with Inkscape (http://www.inkscape.org/) -->

<svg
   width="47.999992"
   height="48.000031"
   viewBox="0 0 12.699999 12.70001"
   version="1.1"
   id="svg1"
   xml:space="preserve"
   xmlns:xlink="http://www.w3.org/1999/xlink"
   xmlns="http://www.w3.org/2000/svg"
   xmlns:svg="http://www.w3.org/2000/svg"><defs
     id="defs1"><linearGradient
       id="linearGradient2"><stop
         style="stop-color:#8a90a8;stop-opacity:1"
         offset="0.68779135"
         id="stop39" /><stop
         style="stop-color:#636883;stop-opacity:1;"
         offset="0.68779135"
         id="stop40" /></linearGradient><linearGradient
       id="linearGradient301"><stop
         style="stop-color:#ffffff;stop-opacity:1;"
         offset="0.68779135"
         id="stop300" /><stop
         style="stop-color:#b2b2b2;stop-opacity:1;"
         offset="0.68779135"
         id="stop301" /></linearGradient><linearGradient
       xlink:href="#linearGradient301"
       id="linearGradient41"
       gradientUnits="userSpaceOnUse"
       x1="398.78177"
       y1="117.41906"
       x2="398.78177"
       y2="119.40787" /><linearGradient
       xlink:href="#linearGradient2"
       id="linearGradient97"
       gradientUnits="userSpaceOnUse"
       x1="398.78177"
       y1="117.41906"
       x2="398.78177"
       y2="119.43993" /></defs><g
     id="g151"
     style="display:inline"
     transform="translate(-228.60001,-279.4)"><g
       id="g36"
       transform="matrix(1,0,0,-1,74.06332,290.15902)"
       style="display:inline"><path
         id="path36"
         style="fill:url(#linearGradient41);stroke:#434a5f;stroke-width:1;stroke-linecap:round;stroke-linejoin:round;stroke-dasharray:none;paint-order:fill markers stroke"
         d="m 397.02152,109.36018 1.76024,0 a 3,3 45 0 1 3,3 v 5.31494 a 3,3 135 0 1 -3,3 h -5.31493 a 3,3 45 0 1 -3,-3 v -1.76025 a 6.5546876,6.5546876 135 0 1 6.55469,-6.55469 z"
         transform="matrix(-1.0312685,0,0,-1.0312685,569.3972,123.02309)" /><path
         d="m 158.5523,-2.7227307 h 1.70462 v 0.7902216 h -2.79964 v -0.7337772 l 1.69333,-2.4383981 h -1.69333 v -0.7902217 h 2.79964 v 0.7337773 z m 4.46841,0.7902216 -0.82408,-1.4957766 h -0.23143 v 1.4957766 H 161 v -3.962397 h 1.61996 q 0.46849,0 0.79586,0.1636888 0.33303,0.1636888 0.49672,0.4515552 0.16368,0.282222 0.16368,0.6321773 0,0.3951108 -0.22577,0.705555 -0.22014,0.3104442 -0.65476,0.4402664 l 0.9144,1.5691543 z M 161.9652,-4.111263 h 0.59831 q 0.26529,0 0.39512,-0.1298221 0.13546,-0.1298221 0.13546,-0.3668886 0,-0.2257776 -0.13546,-0.3555997 -0.12983,-0.1298222 -0.39512,-0.1298222 h -0.59831 z"
         id="text36"
         style="-inkscape-font-specification:'Poppins Bold';fill:#434a5f;stroke-width:0.670673;stroke-linecap:round;stroke-linejoin:round;paint-order:fill markers stroke"
         transform="scale(1,-1)"
         aria-label="ZR" /></g><g
       id="g88"
       transform="matrix(1,0,0,-1,86.76331,290.15899)"
       style="display:none"><path
         id="path77"
         style="fill:url(#linearGradient97);stroke:#434a5f;stroke-width:1;stroke-linecap:round;stroke-linejoin:round;stroke-dasharray:none;paint-order:fill markers stroke"
         d="m 397.02152,109.36018 1.76024,0 a 3,3 45 0 1 3,3 v 5.31494 a 3,3 135 0 1 -3,3 h -5.31493 a 3,3 45 0 1 -3,-3 v -1.76025 a 6.5546876,6.5546876 135 0 1 6.55469,-6.55469 z"
         transform="matrix(1.0312685,0,0,-1.0312685,-247.62382,123.02309)" /><text
         xml:space="preserve"
         style="font-style:normal;font-variant:normal;font-weight:bold;font-stretch:normal;font-size:5.64444px;font-family:Poppins;-inkscape-font-specification:'Poppins Bold';text-align:center;letter-spacing:0.110906px;text-anchor:middle;fill:#434a5f;fill-opacity:1;stroke:none;stroke-width:0.670673;stroke-linecap:round;stroke-linejoin:round;stroke-dasharray:none;stroke-dashoffset:0;stroke-opacity:1;paint-order:fill markers stroke"
         x="160.75262"
         y="-1.9325091"
         id="text86"
         transform="scale(1,-1)"><tspan
           id="tspan86"
           style="font-style:normal;font-variant:normal;font-weight:bold;font-stretch:normal;font-size:5.64444px;font-family:Poppins;-inkscape-font-specification:'Poppins Bold';fill:#434a5f;fill-opacity:1;stroke:none;stroke-width:0.670673"
           x="160.80807"
           y="-1.9325091">ZL</tspan></text></g></g></svg>
