<?xml version="1.0" encoding="UTF-8" standalone="no"?>
<!-- Created with Inkscape (http://www.inkscape.org/) -->

<svg
   width="48.000034"
   height="47.999996"
   viewBox="0 0 12.70001 12.7"
   version="1.1"
   id="svg1"
   xml:space="preserve"
   xmlns:xlink="http://www.w3.org/1999/xlink"
   xmlns="http://www.w3.org/2000/svg"
   xmlns:svg="http://www.w3.org/2000/svg"><defs
     id="defs1"><linearGradient
       id="linearGradient6"><stop
         style="stop-color:#ffffff;stop-opacity:1;"
         offset="0.68779135"
         id="stop5" /><stop
         style="stop-color:#b2b2b2;stop-opacity:1;"
         offset="0.68779135"
         id="stop6" /></linearGradient><linearGradient
       xlink:href="#linearGradient6"
       id="linearGradient593"
       gradientUnits="userSpaceOnUse"
       x1="394.20316"
       y1="117.70407"
       x2="391.80466"
       y2="117.70407" /></defs><g
     id="layer5"
     style="display:inline"
     transform="translate(-88.899993,-241.3)"><g
       id="g591"
       transform="matrix(1,0,0,-1,-65.636693,252.05901)"
       style="display:inline"><path
         id="path591"
         style="fill:url(#linearGradient593);stroke:#434a5f;stroke-width:1;stroke-linecap:round;stroke-linejoin:round;stroke-dasharray:none;paint-order:fill markers stroke"
         d="m 393.27574,109.36018 h 5.69711 a 2.8089072,2.8089072 45 0 1 2.80891,2.80891 v 2.52376 a 5.9822685,5.9822685 135 0 1 -5.98227,5.98227 h -2.52375 a 2.8089072,2.8089072 45 0 1 -2.80891,-2.80891 v -5.69712 a 2.8089072,2.8089072 135 0 1 2.80891,-2.80891 z"
         transform="matrix(0,1.0312685,-1.0312685,0,279.50077,-404.1015)" /><path
         d="m 159.6318,-3.1728782 h 1.26436 v 0.7450661 h -2.22956 v -3.962397 h 0.9652 z m 1.64055,-2.4779092 v -0.897466 h 1.56351 v 4.1204413 h -1.00471 v -3.2229753 z"
         id="text591"
         style="-inkscape-font-specification:'Poppins Bold';fill:#434a5f;stroke-width:0.670673;stroke-linecap:round;stroke-linejoin:round;paint-order:fill markers stroke"
         transform="scale(1,-1)"
         aria-label="L1" /></g></g></svg>
