<?xml version="1.0" encoding="UTF-8" standalone="no"?>
<!-- Created with Inkscape (http://www.inkscape.org/) -->

<svg
   width="48.000034"
   height="40.000027"
   viewBox="0 0 12.70001 10.583341"
   version="1.1"
   id="svg1"
   xml:space="preserve"
   xmlns:xlink="http://www.w3.org/1999/xlink"
   xmlns="http://www.w3.org/2000/svg"
   xmlns:svg="http://www.w3.org/2000/svg"><defs
     id="defs1"><linearGradient
       id="linearGradient301"><stop
         style="stop-color:#ffffff;stop-opacity:1;"
         offset="0.68779135"
         id="stop300" /><stop
         style="stop-color:#b2b2b2;stop-opacity:1;"
         offset="0.68779135"
         id="stop301" /></linearGradient><linearGradient
       xlink:href="#linearGradient301"
       id="linearGradient583"
       gradientUnits="userSpaceOnUse"
       x1="395.22943"
       y1="117.67512"
       x2="393.54318"
       y2="117.67512" /></defs><g
     id="g583"
     style="display:inline"
     transform="translate(-76.199986,-215.90002)"><g
       id="g578"
       transform="rotate(-90,230.63884,152.49786)"
       style="display:inline"><path
         id="path578"
         style="fill:url(#linearGradient583);stroke:#434a5f;stroke-width:1;stroke-linecap:round;stroke-linejoin:round;stroke-dasharray:none;paint-order:fill markers stroke"
         d="m 395.61968,109.36018 h 0.8294 a 5.3326754,5.3326754 45 0 1 5.33268,5.33268 l 0,2.88189 a 3.1003697,3.1003697 135 0 1 -3.10037,3.10037 l -3.06171,0 a 3.1003697,3.1003697 45 0 1 -3.10037,-3.10037 v -5.1142 a 3.1003697,3.1003697 135 0 1 3.10037,-3.10037 z"
         transform="matrix(1.0312685,0,0,-1.0312685,-247.62383,123.02309)" /><path
         d="m 2.9537342,-159.96382 -0.8240883,-1.49578 h -0.231422 v 1.49578 H 0.93302463 v -3.9624 H 2.552979 q 0.4684885,0 0.795866,0.16369 0.333022,0.16369 0.4967108,0.45156 0.1636887,0.28222 0.1636887,0.63217 0,0.39511 -0.2257776,0.70556 -0.2201331,0.31044 -0.654755,0.44026 l 0.9143993,1.56916 z m -1.0555103,-2.17876 h 0.5983107 q 0.2652886,0 0.3951108,-0.12982 0.1354665,-0.12982 0.1354665,-0.36689 0,-0.22577 -0.1354665,-0.3556 -0.1298222,-0.12982 -0.3951108,-0.12982 H 1.8982239 Z m 5.2247711,0.14676 q 0.3443109,0.0734 0.5531552,0.34431 0.2088443,0.26529 0.2088443,0.6096 0,0.49671 -0.3499553,0.79022 -0.3443109,0.28787 -0.9651993,0.28787 H 4.724108 v -3.9624 h 1.7836431 q 0.6039551,0 0.9426215,0.27658 0.3443108,0.27658 0.3443108,0.75071 0,0.34995 -0.1862665,0.58138 -0.1806221,0.23142 -0.4854219,0.32173 z m -1.4336878,-0.32738 h 0.6321773 q 0.2370665,0 0.3612442,-0.1016 0.1298221,-0.10724 0.1298221,-0.31044 0,-0.2032 -0.1298221,-0.31045 -0.1241777,-0.10724 -0.3612442,-0.10724 H 5.6893072 Z m 0.7111995,1.58045 q 0.2427109,0 0.3725331,-0.10725 0.1354665,-0.11289 0.1354665,-0.32173 0,-0.20885 -0.141111,-0.32738 -0.1354666,-0.11853 -0.3781775,-0.11853 H 5.6893072 v 0.87489 z"
         id="text578"
         style="-inkscape-font-specification:'Poppins Bold';fill:#434a5f;stroke-width:0.670673;stroke-linecap:round;stroke-linejoin:round;paint-order:fill markers stroke"
         transform="rotate(90)"
         aria-label="RB" /></g></g></svg>
