<?xml version="1.0" encoding="UTF-8" standalone="no"?>
<!-- Created with Inkscape (http://www.inkscape.org/) -->

<svg
   width="47.999992"
   height="48.000034"
   viewBox="0 0 12.699999 12.70001"
   version="1.1"
   id="svg1"
   xml:space="preserve"
   xmlns:xlink="http://www.w3.org/1999/xlink"
   xmlns="http://www.w3.org/2000/svg"
   xmlns:svg="http://www.w3.org/2000/svg"><defs
     id="defs1"><linearGradient
       id="linearGradient45"><stop
         style="stop-color:#ffffff;stop-opacity:1;"
         offset="0.68779135"
         id="stop44" /><stop
         style="stop-color:#b2b2b2;stop-opacity:1;"
         offset="0.68779135"
         id="stop45" /></linearGradient><linearGradient
       xlink:href="#linearGradient45"
       id="linearGradient587"
       gradientUnits="userSpaceOnUse"
       x1="398.78177"
       y1="117.41906"
       x2="398.78177"
       y2="119.43993" /></defs><g
     id="layer5"
     style="display:inline"
     transform="translate(-101.6,-254)"><g
       id="g586"
       transform="matrix(1,0,0,-1,-52.936688,264.75902)"
       style="display:inline"><path
         id="path585"
         style="fill:url(#linearGradient587);stroke:#434a5f;stroke-width:1;stroke-linecap:round;stroke-linejoin:round;stroke-dasharray:none;paint-order:fill markers stroke"
         d="m 393.27574,109.36018 h 5.69711 a 2.8089072,2.8089072 45 0 1 2.80891,2.80891 v 2.52376 a 5.9822685,5.9822685 135 0 1 -5.98227,5.98227 h -2.52375 a 2.8089072,2.8089072 45 0 1 -2.80891,-2.80891 v -5.69712 a 2.8089072,2.8089072 135 0 1 2.80891,-2.80891 z"
         transform="matrix(1.0312685,0,0,-1.0312685,-247.62382,123.02309)" /><path
         d="M 159.64309,-2.4278121 158.819,-3.9235887 h -0.23142 v 1.4957766 h -0.9652 v -3.962397 h 1.61995 q 0.46849,0 0.79587,0.1636888 0.33302,0.1636887 0.49671,0.4515552 0.16369,0.282222 0.16369,0.6321773 0,0.3951108 -0.22578,0.705555 -0.22013,0.3104442 -0.65475,0.4402663 l 0.91439,1.5691544 z m -1.05551,-2.1787539 h 0.59831 q 0.26529,0 0.39511,-0.1298221 0.13547,-0.1298222 0.13547,-0.3668886 0,-0.2257776 -0.13547,-0.3555998 -0.12982,-0.1298221 -0.39511,-0.1298221 h -0.59831 z m 2.69606,1.4054656 q 0.19191,-0.1523999 0.17498,-0.141111 0.55315,-0.4571997 0.86924,-0.7507106 0.32173,-0.2935108 0.54187,-0.6152439 0.22013,-0.3217331 0.22013,-0.6265329 0,-0.231422 -0.10724,-0.3612442 -0.10725,-0.1298221 -0.32174,-0.1298221 -0.21449,0 -0.33866,0.1636888 -0.11854,0.1580443 -0.11854,0.4515552 h -0.93133 q 0.0113,-0.4797774 0.2032,-0.8015105 0.19756,-0.3217331 0.51364,-0.474133 0.32174,-0.1523999 0.7112,-0.1523999 0.67169,0 1.01036,0.3443109 0.34431,0.3443108 0.34431,0.897466 0,0.6039551 -0.41205,1.1232436 -0.41204,0.513644 -1.04986,1.0047103 h 1.524 v 0.7845772 h -2.83351 z"
         id="text585"
         style="-inkscape-font-specification:'Poppins Bold';fill:#434a5f;stroke-width:0.670673;stroke-linecap:round;stroke-linejoin:round;paint-order:fill markers stroke"
         transform="scale(1,-1)"
         aria-label="R2" /></g></g></svg>
