<?xml version="1.0" encoding="UTF-8" standalone="no"?>
<!-- Created with Inkscape (http://www.inkscape.org/) -->

<svg
   width="47.999996"
   height="26.503256"
   viewBox="0 0 12.699999 7.0123198"
   version="1.1"
   id="svg1"
   xml:space="preserve"
   xmlns:xlink="http://www.w3.org/1999/xlink"
   xmlns="http://www.w3.org/2000/svg"
   xmlns:svg="http://www.w3.org/2000/svg"><defs
     id="defs1"><linearGradient
       id="linearGradient1"><stop
         style="stop-color:#434a5f;stop-opacity:1;"
         offset="1"
         id="stop111" /><stop
         style="stop-color:#434a5f;stop-opacity:1;"
         offset="1"
         id="stop112" /></linearGradient><linearGradient
       id="linearGradient103"><stop
         style="stop-color:#434a5f;stop-opacity:1;"
         offset="1"
         id="stop103" /><stop
         style="stop-color:#434a5f;stop-opacity:1;"
         offset="1"
         id="stop104" /></linearGradient><linearGradient
       id="linearGradient89"><stop
         style="stop-color:#434a5f;stop-opacity:1;"
         offset="1"
         id="stop89" /><stop
         style="stop-color:#434a5f;stop-opacity:1;"
         offset="1"
         id="stop90" /></linearGradient><linearGradient
       id="linearGradient1-1"><stop
         style="stop-color:#434a5f;stop-opacity:1;"
         offset="0.47322804"
         id="stop3" /><stop
         style="stop-color:#434a5f;stop-opacity:1;"
         offset="1"
         id="stop4" /></linearGradient><linearGradient
       id="linearGradient2"><stop
         style="stop-color:#8a90a8;stop-opacity:1"
         offset="0.68779135"
         id="stop39" /><stop
         style="stop-color:#636883;stop-opacity:1;"
         offset="0.68779135"
         id="stop40" /></linearGradient><linearGradient
       id="linearGradient301"><stop
         style="stop-color:#ffffff;stop-opacity:1;"
         offset="0.68779135"
         id="stop300" /><stop
         style="stop-color:#b2b2b2;stop-opacity:1;"
         offset="0.68779135"
         id="stop301" /></linearGradient><linearGradient
       xlink:href="#linearGradient1-1"
       id="linearGradient619"
       gradientUnits="userSpaceOnUse"
       gradientTransform="matrix(1.1460431,0,0,1.1338338,32.004749,-10.125649)"
       x1="-224.7467"
       y1="80.729317"
       x2="-214.19273"
       y2="80.684669" /><linearGradient
       xlink:href="#linearGradient89"
       id="linearGradient627"
       gradientUnits="userSpaceOnUse"
       gradientTransform="translate(-26.834724,-47.191381)"
       x1="103.38011"
       y1="269.83176"
       x2="111.14575"
       y2="269.83176" /><linearGradient
       xlink:href="#linearGradient2"
       id="linearGradient996"
       x1="-225.56467"
       y1="81.407982"
       x2="-213.46935"
       y2="81.357353"
       gradientUnits="userSpaceOnUse" /><linearGradient
       xlink:href="#linearGradient301"
       id="linearGradient1031"
       gradientUnits="userSpaceOnUse"
       x1="-225.56467"
       y1="81.407982"
       x2="-213.49356"
       y2="81.35714" /><linearGradient
       xlink:href="#linearGradient1"
       id="linearGradient1032"
       gradientUnits="userSpaceOnUse"
       gradientTransform="matrix(1.1460431,0,0,1.1338338,32.004749,-10.125649)"
       x1="-224.81413"
       y1="80.729324"
       x2="-214.21385"
       y2="80.684479" /><linearGradient
       xlink:href="#linearGradient103"
       id="linearGradient1033"
       gradientUnits="userSpaceOnUse"
       gradientTransform="translate(-26.834724,-47.191381)"
       x1="103.38011"
       y1="269.83176"
       x2="111.14575"
       y2="269.83176" /></defs><g
     id="g584"
     style="display:inline"
     transform="translate(-12.700003,-203.19999)"><g
       id="g603"
       style="display:inline"
       transform="translate(-48.727755,-15.710879)"><rect
         style="fill:url(#linearGradient996);fill-opacity:1;stroke:url(#linearGradient619);stroke-width:1.05833;stroke-linecap:round;stroke-linejoin:round;stroke-miterlimit:0;stroke-dasharray:none;paint-order:fill markers stroke"
         id="rect603"
         width="5.9292898"
         height="11.641723"
         x="-225.03551"
         y="75.58712"
         rx="2.9646449"
         ry="2.9330611"
         transform="matrix(0.00418552,-0.99999124,0.99999086,0.00427616,0,0)" /><path
         d="m 76.671399,223.44044 q -0.313619,0 -0.518583,-0.14569 -0.202494,-0.14817 -0.21978,-0.43216 h 0.582788 q 0.01235,0.15064 0.13335,0.15064 0.04445,0 0.07408,-0.0198 0.0321,-0.0222 0.0321,-0.0667 0,-0.0617 -0.06667,-0.0988 -0.06668,-0.0395 -0.207433,-0.0889 -0.167922,-0.0593 -0.279047,-0.11606 -0.108655,-0.0568 -0.187677,-0.16545 -0.07902,-0.10866 -0.07655,-0.27905 0,-0.17039 0.08643,-0.28893 0.0889,-0.121 0.239535,-0.18273 0.153105,-0.0617 0.343252,-0.0617 0.321028,0 0.508705,0.14817 0.190147,0.14816 0.200025,0.41733 h -0.590197 q -0.0025,-0.0741 -0.03704,-0.10618 -0.03457,-0.0321 -0.08396,-0.0321 -0.03457,0 -0.0568,0.0247 -0.02223,0.0222 -0.02223,0.0642 0,0.0593 0.06421,0.0988 0.06668,0.037 0.209903,0.0914 0.165452,0.0617 0.271638,0.11853 0.108655,0.0568 0.187678,0.15805 0.07902,0.10124 0.07902,0.25435 0,0.16051 -0.07902,0.28892 -0.07902,0.12595 -0.229658,0.19756 -0.150636,0.0716 -0.358069,0.0716 z m 1.459042,-1.32856 v 0.21485 h 0.543277 v 0.41239 h -0.543277 v 0.24695 h 0.61736 v 0.43709 h -1.165575 v -1.74837 h 1.165575 v 0.43709 z m 1.42447,0.89641 h 0.52846 v 0.41487 h -1.076675 v -1.74837 h 0.548215 z m 1.301,-0.89641 v 0.21485 h 0.543277 v 0.41239 h -0.543277 v 0.24695 h 0.61736 v 0.43709 h -1.165576 v -1.74837 h 1.165576 v 0.43709 z m 0.826865,0.43463 q 0,-0.2593 0.103717,-0.46179 0.106186,-0.20249 0.301271,-0.31362 0.195086,-0.11359 0.459316,-0.11359 0.227189,0 0.404988,0.0864 0.180269,0.084 0.291394,0.23953 0.113594,0.15558 0.150636,0.36301 h -0.577849 q -0.03951,-0.0864 -0.113594,-0.13335 -0.07161,-0.0494 -0.165453,-0.0494 -0.138288,0 -0.21978,0.10372 -0.07902,0.10372 -0.07902,0.27905 0,0.17533 0.07902,0.27904 0.08149,0.10372 0.21978,0.10372 0.09384,0 0.165453,-0.0469 0.07408,-0.0494 0.113594,-0.13582 h 0.577849 q -0.03704,0.20743 -0.150636,0.36301 -0.111125,0.15557 -0.291394,0.242 -0.177799,0.084 -0.404988,0.084 -0.26423,0 -0.459316,-0.11112 -0.195085,-0.1136 -0.301271,-0.31609 -0.103717,-0.20249 -0.103717,-0.46178 z m 3.333349,-0.87172 v 0.43462 H 84.55187 v 1.31375 h -0.548216 v -1.31375 h -0.459315 v -0.43462 z"
         id="text603"
         style="font-weight:900;font-size:2.46944px;line-height:1.1;font-family:Poppins;-inkscape-font-specification:'Poppins Heavy';text-align:center;letter-spacing:0.0514618px;text-anchor:middle;fill:url(#linearGradient627);stroke-width:0.79375;stroke-linecap:square;stroke-linejoin:round;stroke-miterlimit:2.66;paint-order:stroke fill markers"
         aria-label="SELECT" /></g><g
       id="g1027"
       style="display:inline"
       transform="translate(-61.427753,-15.710879)"><rect
         style="fill:url(#linearGradient1031);fill-opacity:1;stroke:url(#linearGradient1032);stroke-width:1.05833;stroke-linecap:round;stroke-linejoin:round;stroke-miterlimit:0;stroke-dasharray:none;paint-order:fill markers stroke"
         id="rect1027"
         width="5.9292898"
         height="11.641723"
         x="-225.03551"
         y="75.58712"
         rx="2.9646449"
         ry="2.9330611"
         transform="matrix(0.00418552,-0.99999124,0.99999086,0.00427616,0,0)" /><path
         d="m 77.082363,223.44044 q -0.313619,0 -0.518583,-0.14569 -0.202494,-0.14817 -0.21978,-0.43216 h 0.582788 q 0.01235,0.15064 0.13335,0.15064 0.04445,0 0.07408,-0.0198 0.0321,-0.0222 0.0321,-0.0667 0,-0.0617 -0.06668,-0.0988 -0.06668,-0.0395 -0.207433,-0.0889 -0.167922,-0.0593 -0.279047,-0.11606 -0.108655,-0.0568 -0.187677,-0.16545 -0.07902,-0.10866 -0.07655,-0.27905 0,-0.17039 0.08643,-0.28893 0.0889,-0.121 0.239536,-0.18273 0.153105,-0.0617 0.343252,-0.0617 0.321027,0 0.508705,0.14817 0.190147,0.14816 0.200025,0.41733 H 77.13669 q -0.0025,-0.0741 -0.03704,-0.10618 -0.03457,-0.0321 -0.08396,-0.0321 -0.03457,0 -0.0568,0.0247 -0.02222,0.0222 -0.02222,0.0642 0,0.0593 0.06421,0.0988 0.06667,0.037 0.209903,0.0914 0.165452,0.0617 0.271638,0.11853 0.108655,0.0568 0.187677,0.15805 0.07902,0.10124 0.07902,0.25435 0,0.16051 -0.07902,0.28892 -0.07902,0.12595 -0.229658,0.19756 -0.150635,0.0716 -0.358068,0.0716 z m 2.283835,-1.76565 v 0.43462 h -0.464254 v 1.31375 h -0.548216 v -1.31375 h -0.459316 v -0.43462 z m 1.320752,1.48414 h -0.582788 l -0.08643,0.26423 h -0.57538 l 0.639585,-1.74837 h 0.632177 l 0.637116,1.74837 h -0.577849 z m -0.13335,-0.4124 -0.158044,-0.48648 -0.158044,0.48648 z m 1.851686,0.67663 -0.328435,-0.62724 h -0.0025 v 0.62724 h -0.548216 v -1.74837 h 0.814916 q 0.212371,0 0.363007,0.0766 0.150636,0.0741 0.224719,0.20496 0.07655,0.12841 0.07655,0.29139 0,0.17533 -0.09878,0.31115 -0.09631,0.13582 -0.279046,0.19509 l 0.380293,0.66922 z m -0.330905,-0.99272 h 0.217311 q 0.07902,0 0.118533,-0.0346 0.03951,-0.037 0.03951,-0.11359 0,-0.0691 -0.04198,-0.10866 -0.03951,-0.0395 -0.116064,-0.0395 H 82.07438 Z m 2.53078,-0.75565 v 0.43462 h -0.464255 v 1.31375 H 83.59269 v -1.31375 h -0.459316 v -0.43462 z"
         id="text1027"
         style="font-weight:900;font-size:2.46944px;line-height:1.1;font-family:Poppins;-inkscape-font-specification:'Poppins Heavy';text-align:center;letter-spacing:0.0514618px;text-anchor:middle;fill:url(#linearGradient1033);stroke-width:0.79375;stroke-linecap:square;stroke-linejoin:round;stroke-miterlimit:2.66;paint-order:stroke fill markers"
         aria-label="START" /></g></g></svg>
