<?xml version="1.0" encoding="UTF-8" standalone="no"?>
<!-- Created with Inkscape (http://www.inkscape.org/) -->

<svg
   width="48.000034"
   height="47.999992"
   viewBox="0 0 12.70001 12.699999"
   version="1.1"
   id="svg1"
   xml:space="preserve"
   xmlns:xlink="http://www.w3.org/1999/xlink"
   xmlns="http://www.w3.org/2000/svg"
   xmlns:svg="http://www.w3.org/2000/svg"><defs
     id="defs1"><linearGradient
       id="linearGradient11"><stop
         style="stop-color:#ffffff;stop-opacity:1;"
         offset="0.68779135"
         id="stop9" /><stop
         style="stop-color:#b2b2b2;stop-opacity:1;"
         offset="0.68779135"
         id="stop10" /></linearGradient><linearGradient
       xlink:href="#linearGradient11"
       id="linearGradient595"
       gradientUnits="userSpaceOnUse"
       x1="394.20316"
       y1="117.70407"
       x2="391.80466"
       y2="117.70407" /></defs><g
     id="layer5"
     style="display:inline"
     transform="translate(-101.60001,-241.29999)"><g
       id="g593"
       transform="matrix(1,0,0,-1,-52.93668,252.059)"
       style="display:inline"><path
         id="path593"
         style="fill:url(#linearGradient595);stroke:#434a5f;stroke-width:1;stroke-linecap:round;stroke-linejoin:round;stroke-dasharray:none;paint-order:fill markers stroke"
         d="m 393.27574,109.36018 h 5.69711 a 2.8089072,2.8089072 45 0 1 2.80891,2.80891 v 2.52376 a 5.9822685,5.9822685 135 0 1 -5.98227,5.98227 h -2.52375 a 2.8089072,2.8089072 45 0 1 -2.80891,-2.80891 v -5.69712 a 2.8089072,2.8089072 135 0 1 2.80891,-2.80891 z"
         transform="matrix(0,1.0312685,1.0312685,0,42.272611,-404.1015)" /><path
         d="m 160.19342,-2.4278121 -0.82409,-1.4957766 h -0.23142 v 1.4957766 h -0.9652 v -3.962397 h 1.61995 q 0.46849,0 0.79587,0.1636888 0.33302,0.1636887 0.49671,0.4515552 0.16369,0.282222 0.16369,0.6321773 0,0.3951108 -0.22578,0.705555 -0.22013,0.3104442 -0.65475,0.4402663 l 0.9144,1.5691544 z m -1.05551,-2.1787539 h 0.59831 q 0.26529,0 0.39511,-0.1298221 0.13547,-0.1298222 0.13547,-0.3668886 0,-0.2257776 -0.13547,-0.3555998 -0.12982,-0.1298221 -0.39511,-0.1298221 h -0.59831 z m 2.62833,-1.0442214 v -0.897466 h 1.56351 v 4.1204413 h -1.00471 v -3.2229753 z"
         id="text593"
         style="-inkscape-font-specification:'Poppins Bold';fill:#434a5f;stroke-width:0.670673;stroke-linecap:round;stroke-linejoin:round;paint-order:fill markers stroke"
         transform="scale(1,-1)"
         aria-label="R1" /></g></g></svg>
