<?xml version="1.0" encoding="UTF-8" standalone="no"?>
<!-- Created with Inkscape (http://www.inkscape.org/) -->

<svg
   width="75.047546"
   height="40.764942"
   viewBox="0 0 19.85633 10.785724"
   version="1.1"
   id="svg1"
   xml:space="preserve"
   xmlns:xlink="http://www.w3.org/1999/xlink"
   xmlns="http://www.w3.org/2000/svg"
   xmlns:svg="http://www.w3.org/2000/svg"><defs
     id="defs1"><linearGradient
       id="linearGradient1"><stop
         style="stop-color:#434a5f;stop-opacity:1;"
         offset="1"
         id="stop111" /><stop
         style="stop-color:#434a5f;stop-opacity:1;"
         offset="1"
         id="stop112" /></linearGradient><linearGradient
       id="linearGradient103"><stop
         style="stop-color:#434a5f;stop-opacity:1;"
         offset="1"
         id="stop103" /><stop
         style="stop-color:#434a5f;stop-opacity:1;"
         offset="1"
         id="stop104" /></linearGradient><linearGradient
       id="linearGradient7"><stop
         style="stop-color:#b8b8b8;stop-opacity:1;"
         offset="0.16548869"
         id="stop14" /><stop
         style="stop-color:#ffffff;stop-opacity:1;"
         offset="0.16548869"
         id="stop16" /><stop
         style="stop-color:#ffffff;stop-opacity:1;"
         offset="0.2089889"
         id="stop15" /><stop
         style="stop-color:#e5e5e5;stop-opacity:1;"
         offset="0.2089889"
         id="stop7" /></linearGradient><linearGradient
       xlink:href="#linearGradient7"
       id="linearGradient157"
       gradientUnits="userSpaceOnUse"
       gradientTransform="matrix(0.92191655,0,0,1.2036382,-196.54761,-200.50934)"
       x1="454.61255"
       y1="238.41618"
       x2="454.61255"
       y2="230.33301" /><linearGradient
       xlink:href="#linearGradient7"
       id="linearGradient169"
       gradientUnits="userSpaceOnUse"
       gradientTransform="matrix(1.1871923,0,0,1.1870466,-315.31179,-196.6207)"
       x1="454.61255"
       y1="238.41618"
       x2="454.61255"
       y2="230.33301" /><linearGradient
       xlink:href="#linearGradient1"
       id="linearGradient30"
       x1="215.89999"
       y1="81.592857"
       x2="241.3"
       y2="81.592857"
       gradientUnits="userSpaceOnUse" /><linearGradient
       xlink:href="#linearGradient1"
       id="linearGradient31"
       x1="215.89999"
       y1="81.592857"
       x2="241.3"
       y2="81.592857"
       gradientUnits="userSpaceOnUse"
       gradientTransform="matrix(0.776552,0,0,1.0139772,48.308391,-1.1404386)" /><linearGradient
       xlink:href="#linearGradient103"
       id="linearGradient779"
       x1="449.63513"
       y1="244.23256"
       x2="465.32306"
       y2="244.23256"
       gradientUnits="userSpaceOnUse" /><linearGradient
       xlink:href="#linearGradient103"
       id="linearGradient781"
       x1="449.54474"
       y1="244.23256"
       x2="462.20807"
       y2="244.23256"
       gradientUnits="userSpaceOnUse" /></defs><g
     id="layer2"
     transform="translate(-127.00007,-88.899951)"
     style="display:inline"><g
       id="g153"
       transform="translate(-88.899945,12.699953)"
       style="display:inline"><path
         id="rect153"
         style="display:inline;opacity:1;fill:url(#linearGradient157);stroke:url(#linearGradient31);stroke-width:1.0565;stroke-linecap:round;stroke-linejoin:round;stroke-miterlimit:0;paint-order:fill markers stroke"
         d="m 217.45568,76.728248 h 16.74498 c 0.56919,0 1.02743,0.598268 1.02743,1.341406 v 7.046399 c 0,0.743151 -0.45824,1.341419 -1.02743,1.341419 h -16.74498 c -0.56919,0 -1.02742,-0.598268 -1.02742,-1.341419 v -7.046399 c 0,-0.743138 0.45823,-1.341406 1.02742,-1.341406 z" /><path
         style="font-weight:bold;font-size:4.52002px;font-family:Poppins;-inkscape-font-specification:'Poppins Bold';letter-spacing:0.100131px;display:inline;fill:url(#linearGradient781);stroke-width:1.99061;stroke-linecap:round;stroke-linejoin:round;stroke-dasharray:3.98122, 1.99061;paint-order:fill markers stroke"
         d="m 450.78322,245.85751 q -0.34805,0 -0.62377,-0.113 -0.27572,-0.113 -0.44296,-0.33449 -0.16272,-0.22148 -0.17176,-0.53336 h 0.82264 q 0.0181,0.17628 0.12204,0.2712 0.10396,0.0904 0.27121,0.0904 0.17176,0 0.2712,-0.0768 0.0994,-0.0814 0.0994,-0.22148 0,-0.11752 -0.0814,-0.19436 -0.0768,-0.0768 -0.19436,-0.12656 -0.113,-0.0497 -0.32545,-0.113 -0.30736,-0.0949 -0.50172,-0.18984 -0.19436,-0.0949 -0.33448,-0.28024 -0.14012,-0.18532 -0.14012,-0.48364 0,-0.44297 0.32092,-0.69157 0.32092,-0.25312 0.8362,-0.25312 0.52433,0 0.84525,0.25312 0.32092,0.2486 0.34352,0.69609 h -0.8362 q -0.009,-0.15368 -0.113,-0.23956 -0.10396,-0.0904 -0.26669,-0.0904 -0.14012,0 -0.226,0.0768 -0.0859,0.0723 -0.0859,0.21244 0,0.15368 0.14464,0.23956 0.14464,0.0859 0.45201,0.18532 0.30736,0.10396 0.4972,0.19888 0.19436,0.0949 0.33448,0.27572 0.14012,0.1808 0.14012,0.46556 0,0.2712 -0.14012,0.49268 -0.1356,0.22149 -0.39776,0.35257 -0.26216,0.13108 -0.61924,0.13108 z m 4.48002,-3.2047 v 3.17306 h -0.77292 v -1.30629 H 453.288 v 1.30629 h -0.77293 v -3.17306 h 0.77293 v 1.24301 h 1.20232 v -1.24301 z m 1.42903,0 v 3.17306 h -0.77293 v -3.17306 z m 2.72626,0 v 0.61925 h -1.29273 v 0.66896 h 0.96729 v 0.60116 h -0.96729 v 1.28369 h -0.77292 v -3.17306 z m 2.78955,0 v 0.61925 h -0.84073 v 2.55381 h -0.77292 v -2.55381 h -0.84072 v -0.61925 z"
         id="text153"
         transform="matrix(1.1870466,0,0,1.1870466,-315.24649,-209.32071)"
         aria-label="SHIFT" /></g><g
       id="g169"
       transform="translate(-63.499962,12.699958)"><path
         id="path168"
         style="display:inline;opacity:1;fill:url(#linearGradient169);stroke:url(#linearGradient30);stroke-width:1.19062;stroke-linecap:round;stroke-linejoin:round;stroke-miterlimit:0;paint-order:fill markers stroke"
         d="m 217.81838,76.795304 h 21.56323 c 0.73298,0 1.32308,0.590022 1.32308,1.322916 v 6.949268 c 0,0.732906 -0.5901,1.322928 -1.32308,1.322928 h -21.56323 c -0.73298,0 -1.32307,-0.590022 -1.32307,-1.322928 V 78.11822 c 0,-0.732894 0.59009,-1.322916 1.32307,-1.322916 z" /><path
         style="font-weight:bold;font-size:4.52002px;font-family:Poppins;-inkscape-font-specification:'Poppins Bold';letter-spacing:0.100131px;display:inline;fill:url(#linearGradient779);stroke-width:1.99061;stroke-linecap:round;stroke-linejoin:round;stroke-dasharray:3.98122, 1.99061;paint-order:fill markers stroke"
         d="m 450.40805,242.65281 v 3.17306 h -0.77292 v -3.17306 z m 3.49919,3.17306 h -0.77292 l -1.29273,-1.95717 v 1.95717 h -0.77292 v -3.17306 h 0.77292 l 1.29273,1.96621 v -1.96621 h 0.77292 z m 1.8087,0.0316 q -0.34804,0 -0.62376,-0.113 -0.27572,-0.113 -0.44296,-0.33449 -0.16272,-0.22148 -0.17176,-0.53336 h 0.82264 q 0.0181,0.17628 0.12204,0.2712 0.10396,0.0904 0.2712,0.0904 0.17176,0 0.2712,-0.0768 0.0994,-0.0814 0.0994,-0.22148 0,-0.11752 -0.0814,-0.19436 -0.0768,-0.0768 -0.19436,-0.12656 -0.113,-0.0497 -0.32544,-0.113 -0.30736,-0.0949 -0.50172,-0.18984 -0.19436,-0.0949 -0.33448,-0.28024 -0.14012,-0.18532 -0.14012,-0.48364 0,-0.44297 0.32092,-0.69157 0.32092,-0.25312 0.8362,-0.25312 0.52432,0 0.84525,0.25312 0.32092,0.2486 0.34352,0.69609 h -0.83621 q -0.009,-0.15368 -0.113,-0.23956 -0.10396,-0.0904 -0.26668,-0.0904 -0.14012,0 -0.226,0.0768 -0.0859,0.0723 -0.0859,0.21244 0,0.15368 0.14464,0.23956 0.14464,0.0859 0.452,0.18532 0.30736,0.10396 0.49721,0.19888 0.19436,0.0949 0.33448,0.27572 0.14012,0.1808 0.14012,0.46556 0,0.2712 -0.14012,0.49268 -0.1356,0.22149 -0.39777,0.35257 -0.26216,0.13108 -0.61924,0.13108 z m 2.50478,-2.58545 v 0.64184 h 1.03509 v 0.59664 h -1.03509 v 0.69608 h 1.17069 v 0.61925 h -1.94361 v -3.17306 h 1.94361 v 0.61925 z m 3.39071,2.55381 -0.65992,-1.19781 h -0.18532 v 1.19781 h -0.77293 v -3.17306 h 1.29725 q 0.37516,0 0.63732,0.13108 0.26668,0.13108 0.39776,0.3616 0.13108,0.22601 0.13108,0.50625 0,0.3164 -0.1808,0.565 -0.17628,0.2486 -0.52432,0.35256 l 0.73224,1.25657 z m -0.84524,-1.74473 h 0.47912 q 0.21244,0 0.3164,-0.10396 0.10848,-0.10396 0.10848,-0.2938 0,-0.1808 -0.10848,-0.28476 -0.10396,-0.10396 -0.3164,-0.10396 h -0.47912 z m 4.55687,-1.42833 v 0.61925 h -0.84072 v 2.55381 h -0.77293 v -2.55381 h -0.84072 v -0.61925 z"
         id="text169"
         transform="matrix(1.1870466,0,0,1.1870466,-315.24649,-209.32071)"
         aria-label="INSERT" /></g></g></svg>
