<?xml version="1.0" encoding="UTF-8" standalone="no"?>
<!-- Created with Inkscape (http://www.inkscape.org/) -->

<svg
   width="77.42173"
   height="40.76495"
   viewBox="0 0 20.484499 10.785726"
   version="1.1"
   id="svg1"
   xml:space="preserve"
   xmlns:xlink="http://www.w3.org/1999/xlink"
   xmlns="http://www.w3.org/2000/svg"
   xmlns:svg="http://www.w3.org/2000/svg"><defs
     id="defs1"><linearGradient
       id="linearGradient1"><stop
         style="stop-color:#434a5f;stop-opacity:1;"
         offset="1"
         id="stop111" /><stop
         style="stop-color:#434a5f;stop-opacity:1;"
         offset="1"
         id="stop112" /></linearGradient><linearGradient
       id="linearGradient103"><stop
         style="stop-color:#434a5f;stop-opacity:1;"
         offset="1"
         id="stop103" /><stop
         style="stop-color:#434a5f;stop-opacity:1;"
         offset="1"
         id="stop104" /></linearGradient><linearGradient
       id="linearGradient7"><stop
         style="stop-color:#b8b8b8;stop-opacity:1;"
         offset="0.16548869"
         id="stop14" /><stop
         style="stop-color:#ffffff;stop-opacity:1;"
         offset="0.16548869"
         id="stop16" /><stop
         style="stop-color:#ffffff;stop-opacity:1;"
         offset="0.2089889"
         id="stop15" /><stop
         style="stop-color:#e5e5e5;stop-opacity:1;"
         offset="0.2089889"
         id="stop7" /></linearGradient><linearGradient
       xlink:href="#linearGradient7"
       id="linearGradient170"
       gradientUnits="userSpaceOnUse"
       gradientTransform="translate(-1.4338166e-5,10.698826)"
       x1="454.61255"
       y1="238.41618"
       x2="454.61255"
       y2="230.33301" /><linearGradient
       xlink:href="#linearGradient1"
       id="linearGradient84"
       x1="447.45212"
       y1="245.07343"
       x2="464.7088"
       y2="245.07343"
       gradientUnits="userSpaceOnUse" /><linearGradient
       xlink:href="#linearGradient103"
       id="linearGradient780"
       x1="449.50406"
       y1="244.23256"
       x2="461.83673"
       y2="244.23256"
       gradientUnits="userSpaceOnUse" /></defs><g
     id="layer2"
     transform="translate(-152.40007,-76.199942)"
     style="display:inline"><g
       id="g168"
       transform="translate(-63.499945,-5.2328735e-5)"><rect
         style="display:inline;opacity:1;fill:url(#linearGradient170);stroke:url(#linearGradient84);stroke-width:1.00301;stroke-linecap:round;stroke-linejoin:round;stroke-miterlimit:0;stroke-dasharray:none;stroke-opacity:1;paint-order:fill markers stroke"
         id="rect168"
         width="16.253683"
         height="8.0831757"
         x="447.95361"
         y="241.03183"
         rx="1.1144606"
         ry="1.1144606"
         transform="matrix(1.1870466,0,0,1.1870466,-315.24649,-209.32071)" /><path
         style="font-weight:bold;font-size:4.52002px;font-family:Poppins;-inkscape-font-specification:'Poppins Bold';letter-spacing:0.100131px;fill:url(#linearGradient780);stroke-width:1.99061;stroke-linecap:round;stroke-linejoin:round;stroke-dasharray:3.98122, 1.99061;paint-order:fill markers stroke"
         d="m 449.50405,244.23482 q 0,-0.47008 0.2034,-0.8362 0.2034,-0.37065 0.565,-0.57405 0.36612,-0.20792 0.82717,-0.20792 0.565,0 0.96728,0.29832 0.40228,0.29833 0.53788,0.81361 h -0.84976 q -0.0949,-0.19888 -0.2712,-0.30284 -0.17176,-0.10396 -0.39324,-0.10396 -0.35708,0 -0.57857,0.2486 -0.22148,0.2486 -0.22148,0.66444 0,0.41584 0.22148,0.66444 0.22149,0.2486 0.57857,0.2486 0.22148,0 0.39324,-0.10396 0.17628,-0.10396 0.2712,-0.30284 h 0.84976 q -0.1356,0.51528 -0.53788,0.81361 -0.40228,0.2938 -0.96728,0.2938 -0.46105,0 -0.82717,-0.2034 -0.3616,-0.20793 -0.565,-0.57405 -0.2034,-0.36612 -0.2034,-0.8362 z m 5.65071,1.03056 h -1.18424 l -0.18984,0.56049 h -0.80909 l 1.14809,-3.17306 h 0.89496 l 1.14809,3.17306 h -0.81813 z m -0.19888,-0.59664 -0.39324,-1.16164 -0.38872,1.16164 z m 4.07323,-0.9944 q 0,0.27572 -0.12656,0.50624 -0.12656,0.226 -0.38873,0.36612 -0.26216,0.14012 -0.65088,0.14012 h -0.47912 v 1.13905 h -0.77292 v -3.17306 h 1.25204 q 0.37968,0 0.64184,0.13108 0.26217,0.13108 0.39325,0.3616 0.13108,0.23053 0.13108,0.52885 z m -1.22493,0.39776 q 0.22148,0 0.32996,-0.10396 0.10848,-0.10396 0.10848,-0.2938 0,-0.18984 -0.10848,-0.2938 -0.10848,-0.10396 -0.32996,-0.10396 h -0.42036 v 0.79552 z m 2.87543,1.78541 q -0.34804,0 -0.62377,-0.113 -0.27572,-0.113 -0.44296,-0.33449 -0.16272,-0.22148 -0.17176,-0.53336 h 0.82265 q 0.0181,0.17628 0.12204,0.2712 0.10396,0.0904 0.2712,0.0904 0.17176,0 0.2712,-0.0768 0.0994,-0.0814 0.0994,-0.22148 0,-0.11752 -0.0814,-0.19436 -0.0768,-0.0768 -0.19436,-0.12656 -0.113,-0.0497 -0.32544,-0.113 -0.30737,-0.0949 -0.50173,-0.18984 -0.19436,-0.0949 -0.33448,-0.28024 -0.14012,-0.18532 -0.14012,-0.48364 0,-0.44297 0.32092,-0.69157 0.32092,-0.25312 0.83621,-0.25312 0.52432,0 0.84524,0.25312 0.32092,0.2486 0.34352,0.69609 h -0.8362 q -0.009,-0.15368 -0.113,-0.23956 -0.10396,-0.0904 -0.26668,-0.0904 -0.14012,0 -0.226,0.0768 -0.0859,0.0723 -0.0859,0.21244 0,0.15368 0.14464,0.23956 0.14464,0.0859 0.452,0.18532 0.30736,0.10396 0.4972,0.19888 0.19436,0.0949 0.33448,0.27572 0.14012,0.1808 0.14012,0.46556 0,0.2712 -0.14012,0.49268 -0.1356,0.22149 -0.39776,0.35257 -0.26216,0.13108 -0.61924,0.13108 z"
         id="text168"
         transform="matrix(1.1870466,0,0,1.1870466,-315.24649,-209.32071)"
         aria-label="CAPS" /></g></g></svg>
