<?xml version="1.0" encoding="UTF-8" standalone="no"?>
<!-- Created with Inkscape (http://www.inkscape.org/) -->

<svg
   width="37.764977"
   height="40.764977"
   viewBox="0 0 9.9919834 10.785733"
   version="1.1"
   id="svg1"
   xml:space="preserve"
   xmlns:xlink="http://www.w3.org/1999/xlink"
   xmlns="http://www.w3.org/2000/svg"
   xmlns:svg="http://www.w3.org/2000/svg"><defs
     id="defs1"><linearGradient
       id="linearGradient1"><stop
         style="stop-color:#434a5f;stop-opacity:1;"
         offset="1"
         id="stop111" /><stop
         style="stop-color:#434a5f;stop-opacity:1;"
         offset="1"
         id="stop112" /></linearGradient><linearGradient
       id="linearGradient103"><stop
         style="stop-color:#434a5f;stop-opacity:1;"
         offset="1"
         id="stop103" /><stop
         style="stop-color:#434a5f;stop-opacity:1;"
         offset="1"
         id="stop104" /></linearGradient><linearGradient
       id="linearGradient7"><stop
         style="stop-color:#b8b8b8;stop-opacity:1;"
         offset="0.16548869"
         id="stop14" /><stop
         style="stop-color:#ffffff;stop-opacity:1;"
         offset="0.16548869"
         id="stop16" /><stop
         style="stop-color:#ffffff;stop-opacity:1;"
         offset="0.2089889"
         id="stop15" /><stop
         style="stop-color:#e5e5e5;stop-opacity:1;"
         offset="0.2089889"
         id="stop7" /></linearGradient><radialGradient
       xlink:href="#linearGradient7"
       id="radialGradient1091"
       gradientUnits="userSpaceOnUse"
       gradientTransform="matrix(7.5298137,0,0,1.8808423,-2935.1247,-152.09994)"
       cx="452.62515"
       cy="196.25169"
       fx="452.62515"
       fy="196.25169"
       r="4.2087579" /><linearGradient
       xlink:href="#linearGradient1"
       id="linearGradient1092"
       gradientUnits="userSpaceOnUse"
       x1="468.84976"
       y1="212.97694"
       x2="477.26727"
       y2="212.97694" /><linearGradient
       xlink:href="#linearGradient103"
       id="linearGradient1093"
       gradientUnits="userSpaceOnUse"
       x1="471.85843"
       y1="212.13609"
       x2="474.25406"
       y2="212.13609" /></defs><g
     id="layer2"
     transform="translate(-160.10405,56.192907)"
     style="display:inline"><g
       id="g1091"
       style="display:inline;paint-order:fill markers stroke"
       transform="matrix(1.1870466,0,0,1.1870466,-396.44245,-303.61361)"><rect
         style="opacity:1;fill:url(#radialGradient1091);fill-opacity:1;stroke:url(#linearGradient1092);stroke-width:1.00301;stroke-linecap:round;stroke-linejoin:round;stroke-miterlimit:0;stroke-dasharray:none;stroke-opacity:1;paint-order:fill markers stroke"
         id="rect1091"
         width="7.414506"
         height="8.0831823"
         x="469.35126"
         y="208.93536"
         rx="1.1144606"
         ry="1.1144606" /><path
         d="m 473.09692,213.76104 q -0.34804,0 -0.62376,-0.113 -0.27572,-0.113 -0.44296,-0.33448 -0.16272,-0.22148 -0.17176,-0.53336 h 0.82264 q 0.0181,0.17628 0.12204,0.2712 0.10396,0.0904 0.2712,0.0904 0.17176,0 0.2712,-0.0768 0.0994,-0.0814 0.0994,-0.22148 0,-0.11752 -0.0814,-0.19436 -0.0768,-0.0768 -0.19436,-0.12656 -0.113,-0.0497 -0.32544,-0.11301 -0.30736,-0.0949 -0.50172,-0.18984 -0.19436,-0.0949 -0.33448,-0.28024 -0.14012,-0.18532 -0.14012,-0.48364 0,-0.44296 0.32092,-0.69156 0.32092,-0.25312 0.8362,-0.25312 0.52432,0 0.84525,0.25312 0.32092,0.2486 0.34352,0.69608 h -0.83621 q -0.009,-0.15368 -0.113,-0.23956 -0.10396,-0.0904 -0.26668,-0.0904 -0.14012,0 -0.226,0.0768 -0.0859,0.0723 -0.0859,0.21244 0,0.15368 0.14464,0.23956 0.14464,0.0859 0.452,0.18532 0.30737,0.10396 0.49721,0.19888 0.19436,0.0949 0.33448,0.27572 0.14012,0.18081 0.14012,0.46557 0,0.2712 -0.14012,0.49268 -0.1356,0.22148 -0.39776,0.35256 -0.26217,0.13108 -0.61925,0.13108 z"
         id="text1091"
         style="font-weight:bold;font-size:4.52002px;font-family:Poppins;-inkscape-font-specification:'Poppins Bold';text-align:center;letter-spacing:0.100131px;text-anchor:middle;fill:url(#linearGradient1093);stroke-width:1.99061;stroke-linecap:round;stroke-linejoin:round;stroke-dasharray:3.98122, 1.99061"
         aria-label="S" /></g></g></svg>
