<?xml version="1.0" encoding="UTF-8" standalone="no"?>
<!-- Created with Inkscape (http://www.inkscape.org/) -->

<svg
   width="85.904839"
   height="40.765003"
   viewBox="0 0 22.728989 10.78574"
   version="1.1"
   id="svg1"
   xml:space="preserve"
   xmlns:xlink="http://www.w3.org/1999/xlink"
   xmlns="http://www.w3.org/2000/svg"
   xmlns:svg="http://www.w3.org/2000/svg"><defs
     id="defs1"><linearGradient
       id="linearGradient1"><stop
         style="stop-color:#434a5f;stop-opacity:1;"
         offset="1"
         id="stop111" /><stop
         style="stop-color:#434a5f;stop-opacity:1;"
         offset="1"
         id="stop112" /></linearGradient><linearGradient
       id="linearGradient103"><stop
         style="stop-color:#434a5f;stop-opacity:1;"
         offset="1"
         id="stop103" /><stop
         style="stop-color:#434a5f;stop-opacity:1;"
         offset="1"
         id="stop104" /></linearGradient><linearGradient
       id="linearGradient7"><stop
         style="stop-color:#b8b8b8;stop-opacity:1;"
         offset="0.16548869"
         id="stop14" /><stop
         style="stop-color:#ffffff;stop-opacity:1;"
         offset="0.16548869"
         id="stop16" /><stop
         style="stop-color:#ffffff;stop-opacity:1;"
         offset="0.2089889"
         id="stop15" /><stop
         style="stop-color:#e5e5e5;stop-opacity:1;"
         offset="0.2089889"
         id="stop7" /></linearGradient><linearGradient
       xlink:href="#linearGradient7"
       id="linearGradient1043"
       gradientUnits="userSpaceOnUse"
       gradientTransform="matrix(1.0592654,0,0,1.1947575,-258.03763,-198.42795)"
       x1="454.61255"
       y1="238.41618"
       x2="454.61255"
       y2="230.33301" /><linearGradient
       xlink:href="#linearGradient1"
       id="linearGradient1044"
       gradientUnits="userSpaceOnUse"
       x1="215.89999"
       y1="81.592857"
       x2="241.3"
       y2="81.592857"
       gradientTransform="matrix(0.89224415,0,0,1.0064959,23.297472,-0.53002207)" /><linearGradient
       xlink:href="#linearGradient103"
       id="linearGradient1045"
       gradientUnits="userSpaceOnUse"
       x1="449.63513"
       y1="244.23256"
       x2="464.09744"
       y2="244.23256" /></defs><g
     id="layer2"
     transform="translate(-304.80005,-88.899957)"
     style="display:inline"><g
       id="g1043"
       transform="translate(88.900057,12.699967)"
       style="display:inline"><path
         id="path1042"
         style="display:inline;opacity:1;fill:url(#linearGradient1043);stroke:url(#linearGradient1044);stroke-width:1.1283;stroke-linecap:round;stroke-linejoin:round;stroke-miterlimit:0;paint-order:fill markers stroke"
         d="m 217.64464,76.76414 h 19.23968 c 0.65399,0 1.18051,0.593854 1.18051,1.331509 v 6.99441 c 0,0.737667 -0.52652,1.331521 -1.18051,1.331521 h -19.23968 c -0.65399,0 -1.1805,-0.593854 -1.1805,-1.331521 v -6.99441 c 0,-0.737655 0.52651,-1.331509 1.1805,-1.331509 z" /><path
         style="font-weight:bold;font-size:4.52002px;font-family:Poppins;-inkscape-font-specification:'Poppins Bold';letter-spacing:0.100131px;fill:url(#linearGradient1045);stroke-width:1.99061;stroke-linecap:round;stroke-linejoin:round;stroke-dasharray:3.98122, 1.99061;paint-order:fill markers stroke"
         d="m 450.78322,245.85751 q -0.34805,0 -0.62377,-0.113 -0.27572,-0.113 -0.44296,-0.33449 -0.16272,-0.22148 -0.17176,-0.53336 h 0.82264 q 0.0181,0.17628 0.12204,0.2712 0.10396,0.0904 0.27121,0.0904 0.17176,0 0.2712,-0.0768 0.0994,-0.0814 0.0994,-0.22148 0,-0.11752 -0.0814,-0.19436 -0.0768,-0.0768 -0.19436,-0.12656 -0.113,-0.0497 -0.32545,-0.113 -0.30736,-0.0949 -0.50172,-0.18984 -0.19436,-0.0949 -0.33448,-0.28024 -0.14012,-0.18532 -0.14012,-0.48364 0,-0.44297 0.32092,-0.69157 0.32092,-0.25312 0.8362,-0.25312 0.52433,0 0.84525,0.25312 0.32092,0.2486 0.34352,0.69609 h -0.8362 q -0.009,-0.15368 -0.113,-0.23956 -0.10396,-0.0904 -0.26669,-0.0904 -0.14012,0 -0.226,0.0768 -0.0859,0.0723 -0.0859,0.21244 0,0.15368 0.14464,0.23956 0.14464,0.0859 0.45201,0.18532 0.30736,0.10396 0.4972,0.19888 0.19436,0.0949 0.33448,0.27572 0.14012,0.1808 0.14012,0.46556 0,0.2712 -0.14012,0.49268 -0.1356,0.22149 -0.39776,0.35257 -0.26216,0.13108 -0.61924,0.13108 z m 4.15006,-2.18317 q 0,0.27572 -0.12656,0.50624 -0.12656,0.226 -0.38872,0.36612 -0.26216,0.14012 -0.65088,0.14012 H 453.288 v 1.13905 h -0.77293 v -3.17306 h 1.25205 q 0.37968,0 0.64184,0.13108 0.26216,0.13108 0.39324,0.3616 0.13108,0.23053 0.13108,0.52885 z m -1.22492,0.39776 q 0.22148,0 0.32996,-0.10396 0.10848,-0.10396 0.10848,-0.2938 0,-0.18984 -0.10848,-0.2938 -0.10848,-0.10396 -0.32996,-0.10396 H 453.288 v 0.79552 z m 3.70259,1.19328 h -1.18425 l -0.18984,0.56049 h -0.80908 l 1.14808,-3.17306 h 0.89497 l 1.14808,3.17306 h -0.81812 z m -0.19888,-0.59664 -0.39325,-1.16164 -0.38872,1.16164 z m 1.52393,-0.43392 q 0,-0.47008 0.2034,-0.8362 0.2034,-0.37065 0.565,-0.57405 0.36613,-0.20792 0.82717,-0.20792 0.565,0 0.96728,0.29832 0.40228,0.29833 0.53789,0.81361 h -0.84977 q -0.0949,-0.19888 -0.2712,-0.30284 -0.17176,-0.10396 -0.39324,-0.10396 -0.35708,0 -0.57856,0.2486 -0.22149,0.2486 -0.22149,0.66444 0,0.41584 0.22149,0.66444 0.22148,0.2486 0.57856,0.2486 0.22148,0 0.39324,-0.10396 0.17628,-0.10396 0.2712,-0.30284 h 0.84977 q -0.13561,0.51528 -0.53789,0.81361 -0.40228,0.2938 -0.96728,0.2938 -0.46104,0 -0.82717,-0.2034 -0.3616,-0.20793 -0.565,-0.57405 -0.2034,-0.36612 -0.2034,-0.8362 z m 4.44839,-0.96276 v 0.64184 h 1.03508 v 0.59664 h -1.03508 v 0.69608 h 1.17068 v 0.61925 h -1.94361 v -3.17306 h 1.94361 v 0.61925 z"
         id="text1043"
         transform="matrix(1.1870466,0,0,1.1870466,-315.24649,-209.32071)"
         aria-label="SPACE" /></g></g></svg>
