<?xml version="1.0" encoding="UTF-8" standalone="no"?>
<!-- Created with Inkscape (http://www.inkscape.org/) -->

<svg
   width="37.764977"
   height="40.764977"
   viewBox="0 0 9.9919834 10.785733"
   version="1.1"
   id="svg1"
   xml:space="preserve"
   xmlns:xlink="http://www.w3.org/1999/xlink"
   xmlns="http://www.w3.org/2000/svg"
   xmlns:svg="http://www.w3.org/2000/svg"><defs
     id="defs1"><linearGradient
       id="linearGradient1"><stop
         style="stop-color:#434a5f;stop-opacity:1;"
         offset="1"
         id="stop111" /><stop
         style="stop-color:#434a5f;stop-opacity:1;"
         offset="1"
         id="stop112" /></linearGradient><linearGradient
       id="linearGradient103"><stop
         style="stop-color:#434a5f;stop-opacity:1;"
         offset="1"
         id="stop103" /><stop
         style="stop-color:#434a5f;stop-opacity:1;"
         offset="1"
         id="stop104" /></linearGradient><linearGradient
       id="linearGradient7"><stop
         style="stop-color:#b8b8b8;stop-opacity:1;"
         offset="0.16548869"
         id="stop14" /><stop
         style="stop-color:#ffffff;stop-opacity:1;"
         offset="0.16548869"
         id="stop16" /><stop
         style="stop-color:#ffffff;stop-opacity:1;"
         offset="0.2089889"
         id="stop15" /><stop
         style="stop-color:#e5e5e5;stop-opacity:1;"
         offset="0.2089889"
         id="stop7" /></linearGradient><radialGradient
       xlink:href="#linearGradient7"
       id="radialGradient180"
       gradientUnits="userSpaceOnUse"
       gradientTransform="matrix(7.5298137,0,0,1.8808423,-2956.5224,-184.19636)"
       cx="452.62515"
       cy="196.25169"
       fx="452.62515"
       fy="196.25169"
       r="4.2087579" /><linearGradient
       xlink:href="#linearGradient1"
       id="linearGradient242"
       x1="447.45212"
       y1="180.88049"
       x2="455.86963"
       y2="180.88049"
       gradientUnits="userSpaceOnUse" /><linearGradient
       xlink:href="#linearGradient103"
       id="linearGradient800"
       x1="448.90674"
       y1="179.46375"
       x2="454.49881"
       y2="179.46375"
       gradientUnits="userSpaceOnUse" /></defs><g
     id="layer2"
     transform="translate(-127.00006,12.700048)"
     style="display:inline"><g
       id="g208"
       style="display:inline;paint-order:fill markers stroke"
       transform="matrix(1.1870466,0,0,1.1870466,-404.14644,-222.02075)"><rect
         style="opacity:1;fill:url(#radialGradient180);fill-opacity:1;stroke:url(#linearGradient242);stroke-width:1.00301;stroke-linecap:round;stroke-linejoin:round;stroke-miterlimit:0;stroke-dasharray:none;stroke-opacity:1;paint-order:fill markers stroke"
         id="rect179"
         width="7.414506"
         height="8.0831823"
         x="447.95361"
         y="176.8389"
         rx="1.1144606"
         ry="1.1144606" /><path
         d="m 449.42159,178.82394 v 0.42754 h 0.68948 v 0.39743 h -0.68948 v 0.46367 h 0.77981 v 0.41249 h -1.29467 v -2.11362 h 1.29467 v 0.41249 z m 1.94547,1.72221 q -0.23184,0 -0.4155,-0.0753 -0.18366,-0.0753 -0.29506,-0.2228 -0.10839,-0.14753 -0.11441,-0.35528 h 0.54797 q 0.012,0.11742 0.0813,0.18065 0.0692,0.0602 0.18066,0.0602 0.11441,0 0.18065,-0.0512 0.0662,-0.0542 0.0662,-0.14754 0,-0.0783 -0.0542,-0.12946 -0.0512,-0.0512 -0.12947,-0.0843 -0.0753,-0.0331 -0.21678,-0.0753 -0.20474,-0.0632 -0.3342,-0.12645 -0.12947,-0.0632 -0.22281,-0.18668 -0.0933,-0.12344 -0.0933,-0.32216 0,-0.29506 0.21377,-0.46066 0.21377,-0.1686 0.55701,-0.1686 0.34925,0 0.56302,0.1686 0.21378,0.1656 0.22883,0.46367 h -0.55701 q -0.006,-0.10237 -0.0753,-0.15957 -0.0693,-0.0602 -0.17764,-0.0602 -0.0933,0 -0.15054,0.0512 -0.0572,0.0482 -0.0572,0.14151 0,0.10236 0.0963,0.15957 0.0964,0.0572 0.30108,0.12345 0.20474,0.0692 0.3312,0.13247 0.12946,0.0632 0.2228,0.18367 0.0933,0.12043 0.0933,0.31011 0,0.18065 -0.0933,0.32819 -0.0903,0.14753 -0.26495,0.23484 -0.17463,0.0873 -0.41249,0.0873 z m 1.0663,-1.0809 q 0,-0.31313 0.13549,-0.55701 0.13549,-0.24689 0.37635,-0.38237 0.24388,-0.1385 0.55099,-0.1385 0.37636,0 0.64432,0.19871 0.26797,0.19872 0.35829,0.54196 h -0.56604 q -0.0632,-0.13248 -0.18065,-0.20173 -0.11441,-0.0693 -0.26194,-0.0693 -0.23786,0 -0.38539,0.1656 -0.14753,0.16559 -0.14753,0.44259 0,0.277 0.14753,0.4426 0.14753,0.16559 0.38539,0.16559 0.14753,0 0.26194,-0.0693 0.11742,-0.0692 0.18065,-0.20172 h 0.56604 q -0.0903,0.34323 -0.35829,0.54195 -0.26796,0.1957 -0.64432,0.1957 -0.30711,0 -0.55099,-0.13548 -0.24086,-0.1385 -0.37635,-0.38238 -0.13549,-0.24388 -0.13549,-0.55701 z"
         id="text179"
         style="font-weight:bold;font-size:3.01085px;font-family:Poppins;-inkscape-font-specification:'Poppins Bold';text-align:center;letter-spacing:0.0666985px;text-anchor:middle;fill:url(#linearGradient800);stroke-width:1.99061;stroke-linecap:round;stroke-linejoin:round;stroke-dasharray:3.98122, 1.99061"
         aria-label="ESC" /></g></g></svg>
