<?xml version="1.0" encoding="UTF-8" standalone="no"?>
<!-- Created with Inkscape (http://www.inkscape.org/) -->

<svg
   width="37.764977"
   height="40.764977"
   viewBox="0 0 9.9919834 10.785733"
   version="1.1"
   id="svg1"
   xml:space="preserve"
   xmlns:xlink="http://www.w3.org/1999/xlink"
   xmlns="http://www.w3.org/2000/svg"
   xmlns:svg="http://www.w3.org/2000/svg"><defs
     id="defs1"><linearGradient
       id="linearGradient1"><stop
         style="stop-color:#434a5f;stop-opacity:1;"
         offset="1"
         id="stop111" /><stop
         style="stop-color:#434a5f;stop-opacity:1;"
         offset="1"
         id="stop112" /></linearGradient><linearGradient
       id="linearGradient103"><stop
         style="stop-color:#434a5f;stop-opacity:1;"
         offset="1"
         id="stop103" /><stop
         style="stop-color:#434a5f;stop-opacity:1;"
         offset="1"
         id="stop104" /></linearGradient><linearGradient
       id="linearGradient7"><stop
         style="stop-color:#b8b8b8;stop-opacity:1;"
         offset="0.16548869"
         id="stop14" /><stop
         style="stop-color:#ffffff;stop-opacity:1;"
         offset="0.16548869"
         id="stop16" /><stop
         style="stop-color:#ffffff;stop-opacity:1;"
         offset="0.2089889"
         id="stop15" /><stop
         style="stop-color:#e5e5e5;stop-opacity:1;"
         offset="0.2089889"
         id="stop7" /></linearGradient><radialGradient
       xlink:href="#linearGradient7"
       id="radialGradient129"
       gradientUnits="userSpaceOnUse"
       gradientTransform="matrix(7.5298137,0,0,1.8808423,-2913.7271,-141.40109)"
       cx="452.62515"
       cy="196.25169"
       fx="452.62515"
       fy="196.25169"
       r="4.2087579" /><linearGradient
       xlink:href="#linearGradient1"
       id="linearGradient127"
       x1="490.24738"
       y1="223.67578"
       x2="498.66489"
       y2="223.67578"
       gradientUnits="userSpaceOnUse" /><linearGradient
       xlink:href="#linearGradient103"
       id="linearGradient857"
       x1="492.88315"
       y1="222.83492"
       x2="495.98389"
       y2="222.83492"
       gradientUnits="userSpaceOnUse" /></defs><g
     id="layer2"
     transform="translate(-177.80005,-50.799944)"
     style="display:inline"><g
       id="g259"
       style="display:inline;paint-order:fill markers stroke"
       transform="matrix(1.1870466,0,0,1.1870466,-404.14642,-209.32076)"><rect
         style="opacity:1;fill:url(#radialGradient129);fill-opacity:1;stroke:url(#linearGradient127);stroke-width:1.00301;stroke-linecap:round;stroke-linejoin:round;stroke-miterlimit:0;stroke-dasharray:none;stroke-opacity:1;paint-order:fill markers stroke"
         id="rect119"
         width="7.414506"
         height="8.0831823"
         x="490.74887"
         y="219.63419"
         rx="1.1144606"
         ry="1.1144606" /><path
         d="m 492.88315,222.83718 q 0,-0.47009 0.2034,-0.83621 0.2034,-0.37064 0.565,-0.57404 0.36613,-0.20792 0.82717,-0.20792 0.565,0 0.96728,0.29832 0.40228,0.29832 0.53788,0.8136 h -0.84976 q -0.0949,-0.19888 -0.2712,-0.30284 -0.17176,-0.10396 -0.39324,-0.10396 -0.35708,0 -0.57856,0.2486 -0.22149,0.2486 -0.22149,0.66445 0,0.41584 0.22149,0.66444 0.22148,0.2486 0.57856,0.2486 0.22148,0 0.39324,-0.10396 0.17628,-0.10396 0.2712,-0.30284 h 0.84976 q -0.1356,0.51528 -0.53788,0.8136 -0.40228,0.2938 -0.96728,0.2938 -0.46104,0 -0.82717,-0.2034 -0.3616,-0.20792 -0.565,-0.57404 -0.2034,-0.36612 -0.2034,-0.8362 z"
         id="text119"
         style="font-weight:bold;font-size:4.52002px;font-family:Poppins;-inkscape-font-specification:'Poppins Bold';text-align:center;letter-spacing:0.100131px;text-anchor:middle;fill:url(#linearGradient857);stroke-width:1.99061;stroke-linecap:round;stroke-linejoin:round;stroke-dasharray:3.98122, 1.99061"
         aria-label="C" /></g></g></svg>
