<?xml version="1.0" encoding="UTF-8" standalone="no"?>
<!-- Created with Inkscape (http://www.inkscape.org/) -->

<svg
   width="81.619019"
   height="40.764957"
   viewBox="0 0 21.595032 10.785728"
   version="1.1"
   id="svg1"
   xml:space="preserve"
   xmlns:xlink="http://www.w3.org/1999/xlink"
   xmlns="http://www.w3.org/2000/svg"
   xmlns:svg="http://www.w3.org/2000/svg"><defs
     id="defs1"><linearGradient
       id="linearGradient1"><stop
         style="stop-color:#434a5f;stop-opacity:1;"
         offset="1"
         id="stop111" /><stop
         style="stop-color:#434a5f;stop-opacity:1;"
         offset="1"
         id="stop112" /></linearGradient><linearGradient
       id="linearGradient103"><stop
         style="stop-color:#434a5f;stop-opacity:1;"
         offset="1"
         id="stop103" /><stop
         style="stop-color:#434a5f;stop-opacity:1;"
         offset="1"
         id="stop104" /></linearGradient><linearGradient
       id="linearGradient7"><stop
         style="stop-color:#b8b8b8;stop-opacity:1;"
         offset="0.16548869"
         id="stop14" /><stop
         style="stop-color:#ffffff;stop-opacity:1;"
         offset="0.16548869"
         id="stop16" /><stop
         style="stop-color:#ffffff;stop-opacity:1;"
         offset="0.2089889"
         id="stop15" /><stop
         style="stop-color:#e5e5e5;stop-opacity:1;"
         offset="0.2089889"
         id="stop7" /></linearGradient><linearGradient
       xlink:href="#linearGradient7"
       id="linearGradient174"
       gradientUnits="userSpaceOnUse"
       gradientTransform="matrix(1.0050174,0,0,1.198184,-233.75088,-199.23103)"
       x1="454.61255"
       y1="238.41618"
       x2="454.61255"
       y2="230.33301" /><linearGradient
       xlink:href="#linearGradient1"
       id="linearGradient86"
       x1="215.89999"
       y1="81.592857"
       x2="241.3"
       y2="81.592857"
       gradientUnits="userSpaceOnUse"
       gradientTransform="matrix(0.84654977,0,0,1.0093825,33.17624,-0.76554022)" /><linearGradient
       xlink:href="#linearGradient103"
       id="linearGradient776"
       x1="449.55756"
       y1="244.67679"
       x2="463.61389"
       y2="244.67679"
       gradientUnits="userSpaceOnUse" /></defs><g
     id="layer2"
     transform="translate(-203.20007,-76.199944)"
     style="display:inline"><g
       id="g174"
       transform="translate(-12.699932,-5.2328735e-5)"><path
         id="path174"
         style="display:inline;opacity:1;fill:url(#linearGradient174);stroke:url(#linearGradient86);stroke-width:1.10059;stroke-linecap:round;stroke-linejoin:round;stroke-miterlimit:0;paint-order:fill markers stroke"
         d="m 217.57034,76.750291 h 18.25435 c 0.6205,0 1.12005,0.595558 1.12005,1.335328 v 7.01447 c 0,0.739782 -0.49955,1.33534 -1.12005,1.33534 h -18.25435 c -0.6205,0 -1.12004,-0.595558 -1.12004,-1.33534 v -7.01447 c 0,-0.73977 0.49954,-1.335328 1.12004,-1.335328 z" /><path
         style="font-weight:bold;font-size:3.26908px;font-family:Poppins;-inkscape-font-specification:'Poppins Bold';letter-spacing:0.100131px;fill:url(#linearGradient776);stroke-width:1.99061;stroke-linecap:round;stroke-linejoin:round;stroke-dasharray:3.98122, 1.99061;paint-order:fill markers stroke"
         d="m 451.30653,244.26978 q 0,0.19942 -0.0915,0.36614 -0.0915,0.16346 -0.28115,0.2648 -0.1896,0.10134 -0.47074,0.10134 h -0.34653 v 0.82381 h -0.55901 v -2.2949 h 0.90554 q 0.2746,0 0.46421,0.0948 0.1896,0.0948 0.28441,0.26152 0.0948,0.16673 0.0948,0.38248 z m -0.88592,0.28768 q 0.16018,0 0.23864,-0.0752 0.0785,-0.0752 0.0785,-0.21249 0,-0.1373 -0.0785,-0.21249 -0.0785,-0.0752 -0.23864,-0.0752 h -0.30403 v 0.57535 z m 2.70559,0.86304 h -0.8565 l -0.1373,0.40537 h -0.58517 l 0.83035,-2.2949 h 0.64728 l 0.83034,2.2949 h -0.5917 z m -0.14384,-0.43152 -0.28441,-0.84015 -0.28114,0.84015 z m 2.74808,-0.73227 q -0.0621,-0.11442 -0.1798,-0.17326 -0.11441,-0.0621 -0.27133,-0.0621 -0.27133,0 -0.43479,0.1798 -0.16345,0.17653 -0.16345,0.47402 0,0.3171 0.16999,0.4969 0.17326,0.17653 0.47402,0.17653 0.20595,0 0.34652,-0.10461 0.14384,-0.10461 0.20922,-0.30075 h -0.70939 v -0.41191 h 1.2161 v 0.51978 q -0.0621,0.20923 -0.21249,0.38903 -0.14711,0.17979 -0.37595,0.29094 -0.22883,0.11115 -0.51651,0.11115 -0.33999,0 -0.60805,-0.14711 -0.2648,-0.15037 -0.41517,-0.41517 -0.14711,-0.2648 -0.14711,-0.60478 0,-0.33998 0.14711,-0.60478 0.15037,-0.26806 0.41517,-0.41517 0.2648,-0.15038 0.60478,-0.15038 0.4119,0 0.69304,0.19941 0.28441,0.19942 0.37595,0.55248 z m 1.62679,-0.27787 v 0.46421 h 0.74862 v 0.43151 h -0.74862 v 0.50344 h 0.84669 v 0.44787 h -1.4057 v -2.2949 h 1.4057 v 0.44787 z m 2.65207,-0.44787 v 1.37302 q 0,0.20595 0.10135,0.3171 0.10134,0.11115 0.29748,0.11115 0.19615,0 0.30076,-0.11115 0.10461,-0.11115 0.10461,-0.3171 v -1.37302 h 0.55901 v 1.36975 q 0,0.30729 -0.13076,0.51978 -0.13077,0.21249 -0.35306,0.32037 -0.21903,0.10788 -0.49037,0.10788 -0.27133,0 -0.48709,-0.10461 -0.21249,-0.10788 -0.33671,-0.32037 -0.12423,-0.21576 -0.12423,-0.52305 v -1.36975 z m 3.60459,0.73881 q 0,0.19942 -0.0915,0.36614 -0.0915,0.16346 -0.28115,0.2648 -0.1896,0.10134 -0.47074,0.10134 h -0.34653 v 0.82381 h -0.55901 v -2.2949 h 0.90554 q 0.2746,0 0.46421,0.0948 0.1896,0.0948 0.28441,0.26152 0.0948,0.16673 0.0948,0.38248 z m -0.88592,0.28768 q 0.16018,0 0.23864,-0.0752 0.0785,-0.0752 0.0785,-0.21249 0,-0.1373 -0.0785,-0.21249 -0.0785,-0.0752 -0.23864,-0.0752 h -0.30403 v 0.57535 z"
         id="text174"
         transform="matrix(1.1870466,0,0,1.1870466,-315.24649,-209.32071)"
         aria-label="PAGE UP" /></g></g></svg>
