<?xml version="1.0" encoding="UTF-8" standalone="no"?>
<!-- Created with Inkscape (http://www.inkscape.org/) -->

<svg
   width="37.764977"
   height="40.764977"
   viewBox="0 0 9.9919834 10.785733"
   version="1.1"
   id="svg1"
   xml:space="preserve"
   xmlns:xlink="http://www.w3.org/1999/xlink"
   xmlns="http://www.w3.org/2000/svg"
   xmlns:svg="http://www.w3.org/2000/svg"><defs
     id="defs1"><linearGradient
       id="linearGradient1"><stop
         style="stop-color:#434a5f;stop-opacity:1;"
         offset="1"
         id="stop111" /><stop
         style="stop-color:#434a5f;stop-opacity:1;"
         offset="1"
         id="stop112" /></linearGradient><linearGradient
       id="linearGradient103"><stop
         style="stop-color:#434a5f;stop-opacity:1;"
         offset="1"
         id="stop103" /><stop
         style="stop-color:#434a5f;stop-opacity:1;"
         offset="1"
         id="stop104" /></linearGradient><linearGradient
       id="linearGradient7"><stop
         style="stop-color:#b8b8b8;stop-opacity:1;"
         offset="0.16548869"
         id="stop14" /><stop
         style="stop-color:#ffffff;stop-opacity:1;"
         offset="0.16548869"
         id="stop16" /><stop
         style="stop-color:#ffffff;stop-opacity:1;"
         offset="0.2089889"
         id="stop15" /><stop
         style="stop-color:#e5e5e5;stop-opacity:1;"
         offset="0.2089889"
         id="stop7" /></linearGradient><radialGradient
       xlink:href="#linearGradient7"
       id="radialGradient86"
       gradientUnits="userSpaceOnUse"
       gradientTransform="matrix(7.5298137,0,0,1.8808423,-2903.0283,-152.09991)"
       cx="452.62515"
       cy="196.25169"
       fx="452.62515"
       fy="196.25169"
       r="4.2087579" /><linearGradient
       xlink:href="#linearGradient1"
       id="linearGradient188"
       x1="500.9462"
       y1="212.97694"
       x2="509.36371"
       y2="212.97694"
       gradientUnits="userSpaceOnUse" /><linearGradient
       xlink:href="#linearGradient103"
       id="linearGradient874"
       x1="503.58197"
       y1="212.13609"
       x2="506.72791"
       y2="212.13609"
       gradientUnits="userSpaceOnUse" /></defs><g
     id="layer2"
     transform="translate(-190.50005,-38.099943)"
     style="display:inline"><g
       id="g252"
       style="display:inline;paint-order:fill markers stroke"
       transform="matrix(1.1870466,0,0,1.1870466,-404.14642,-209.32076)"><rect
         style="opacity:1;fill:url(#radialGradient86);fill-opacity:1;stroke:url(#linearGradient188);stroke-width:1.00301;stroke-linecap:round;stroke-linejoin:round;stroke-miterlimit:0;stroke-dasharray:none;stroke-opacity:1;paint-order:fill markers stroke"
         id="rect85"
         width="7.414506"
         height="8.0831823"
         x="501.44769"
         y="208.93536"
         rx="1.1144606"
         ry="1.1144606" /><path
         d="m 505.81938,211.55979 q -0.0859,-0.1582 -0.2486,-0.23956 -0.1582,-0.0859 -0.37516,-0.0859 -0.37516,0 -0.60116,0.2486 -0.226,0.24408 -0.226,0.6554 0,0.43845 0.23504,0.68705 0.23956,0.24408 0.6554,0.24408 0.28476,0 0.47912,-0.14464 0.19888,-0.14464 0.28928,-0.41584 h -0.98084 v -0.56953 h 1.68145 v 0.71869 q -0.0859,0.28928 -0.2938,0.53788 -0.20341,0.2486 -0.51981,0.40228 -0.3164,0.15368 -0.71416,0.15368 -0.47008,0 -0.84072,-0.2034 -0.36613,-0.20792 -0.57405,-0.57404 -0.2034,-0.36612 -0.2034,-0.83621 0,-0.47008 0.2034,-0.8362 0.20792,-0.37064 0.57405,-0.57404 0.36612,-0.20792 0.8362,-0.20792 0.56952,0 0.95824,0.27572 0.39325,0.27572 0.51981,0.76388 z"
         id="text85"
         style="font-weight:bold;font-size:4.52002px;font-family:Poppins;-inkscape-font-specification:'Poppins Bold';text-align:center;letter-spacing:0.100131px;text-anchor:middle;fill:url(#linearGradient874);stroke-width:1.99061;stroke-linecap:round;stroke-linejoin:round;stroke-dasharray:3.98122, 1.99061"
         aria-label="G" /></g></g></svg>
