<?xml version="1.0" encoding="UTF-8" standalone="no"?>
<!-- Created with Inkscape (http://www.inkscape.org/) -->

<svg
   width="58.037186"
   height="40.764984"
   viewBox="0 0 15.355672 10.785735"
   version="1.1"
   id="svg1"
   xml:space="preserve"
   xmlns:xlink="http://www.w3.org/1999/xlink"
   xmlns="http://www.w3.org/2000/svg"
   xmlns:svg="http://www.w3.org/2000/svg"><defs
     id="defs1"><linearGradient
       id="linearGradient1"><stop
         style="stop-color:#434a5f;stop-opacity:1;"
         offset="1"
         id="stop111" /><stop
         style="stop-color:#434a5f;stop-opacity:1;"
         offset="1"
         id="stop112" /></linearGradient><linearGradient
       id="linearGradient103"><stop
         style="stop-color:#434a5f;stop-opacity:1;"
         offset="1"
         id="stop103" /><stop
         style="stop-color:#434a5f;stop-opacity:1;"
         offset="1"
         id="stop104" /></linearGradient><linearGradient
       id="linearGradient7"><stop
         style="stop-color:#b8b8b8;stop-opacity:1;"
         offset="0.16548869"
         id="stop14" /><stop
         style="stop-color:#ffffff;stop-opacity:1;"
         offset="0.16548869"
         id="stop16" /><stop
         style="stop-color:#ffffff;stop-opacity:1;"
         offset="0.2089889"
         id="stop15" /><stop
         style="stop-color:#e5e5e5;stop-opacity:1;"
         offset="0.2089889"
         id="stop7" /></linearGradient><linearGradient
       xlink:href="#linearGradient7"
       id="linearGradient154"
       gradientUnits="userSpaceOnUse"
       x1="454.61255"
       y1="238.41618"
       x2="454.61255"
       y2="230.33301"
       gradientTransform="matrix(0.89606922,0,0,1.0062581,68.071132,-1.4667328)" /><linearGradient
       xlink:href="#linearGradient1"
       id="linearGradient121"
       x1="468.84976"
       y1="234.3746"
       x2="483.22629"
       y2="234.3746"
       gradientUnits="userSpaceOnUse"
       gradientTransform="matrix(0.89606922,0,0,1.0062581,48.897375,-1.4667328)" /><linearGradient
       xlink:href="#linearGradient103"
       id="linearGradient815"
       x1="470.86102"
       y1="233.54053"
       x2="479.76682"
       y2="233.54053"
       gradientUnits="userSpaceOnUse" /></defs><g
     id="layer2"
     transform="translate(-152.5694,-63.499936)"
     style="display:inline"><g
       id="g270"
       style="display:inline;paint-order:fill markers stroke"
       transform="matrix(1.1870466,0,0,1.1870466,-404.14642,-209.32076)"><rect
         style="opacity:1;fill:url(#linearGradient154);stroke:url(#linearGradient121);stroke-width:0.952425;stroke-linecap:round;stroke-linejoin:round;stroke-miterlimit:0;stroke-dasharray:none;stroke-opacity:1;paint-order:fill markers stroke"
         id="rect154"
         width="11.983606"
         height="8.1337681"
         x="469.4686"
         y="230.30771"
         rx="0.9986338"
         ry="1.1214349" /><path
         style="font-weight:bold;font-size:4.52002px;font-family:Poppins;-inkscape-font-specification:'Poppins Bold';letter-spacing:0.100131px;fill:url(#linearGradient815);stroke-width:1.99061;stroke-linecap:round;stroke-linejoin:round;stroke-dasharray:3.98122, 1.99061"
         d="m 473.31538,231.95399 v 0.61924 h -0.84072 v 2.55381 h -0.77292 v -2.55381 h -0.84073 v -0.61924 z m 2.4641,2.61257 h -1.18424 l -0.18984,0.56048 h -0.80909 l 1.14809,-3.17305 h 0.89496 l 1.14809,3.17305 h -0.81813 z m -0.19888,-0.59664 -0.39324,-1.16165 -0.38872,1.16165 z m 3.57603,-0.47008 q 0.27572,0.0588 0.44296,0.27572 0.16724,0.21244 0.16724,0.48816 0,0.39776 -0.28024,0.6328 -0.27572,0.23052 -0.77292,0.23052 h -1.47805 v -3.17305 h 1.42833 q 0.48364,0 0.75484,0.22148 0.27572,0.22148 0.27572,0.60116 0,0.28025 -0.14916,0.46557 -0.14464,0.18532 -0.38872,0.25764 z m -1.14809,-0.26216 h 0.50624 q 0.18985,0 0.28929,-0.0814 0.10396,-0.0859 0.10396,-0.24861 0,-0.16272 -0.10396,-0.2486 -0.0994,-0.0859 -0.28929,-0.0859 h -0.50624 z m 0.56952,1.2656 q 0.19437,0 0.29833,-0.0859 0.10848,-0.0904 0.10848,-0.25764 0,-0.16724 -0.113,-0.26216 -0.10848,-0.0949 -0.30285,-0.0949 h -0.56048 v 0.7006 z"
         id="text154"
         aria-label="TAB" /></g></g></svg>
