<?xml version="1.0" encoding="UTF-8" standalone="no"?>
<!-- Created with Inkscape (http://www.inkscape.org/) -->

<svg
   width="33.732445"
   height="47.943359"
   viewBox="0 0 8.9250427 12.685014"
   version="1.1"
   id="svg1"
   xml:space="preserve"
   xmlns:xlink="http://www.w3.org/1999/xlink"
   xmlns="http://www.w3.org/2000/svg"
   xmlns:svg="http://www.w3.org/2000/svg"><defs
     id="defs1"><linearGradient
       id="linearGradient1"><stop
         style="stop-color:#434a5f;stop-opacity:1;"
         offset="1"
         id="stop111" /><stop
         style="stop-color:#434a5f;stop-opacity:1;"
         offset="1"
         id="stop112" /></linearGradient><linearGradient
       id="linearGradient1-1"><stop
         style="stop-color:#434a5f;stop-opacity:1;"
         offset="0.47322804"
         id="stop3" /><stop
         style="stop-color:#434a5f;stop-opacity:1;"
         offset="1"
         id="stop4" /></linearGradient><linearGradient
       id="linearGradient2"><stop
         style="stop-color:#8a90a8;stop-opacity:1"
         offset="0.68779135"
         id="stop39" /><stop
         style="stop-color:#636883;stop-opacity:1;"
         offset="0.68779135"
         id="stop40" /></linearGradient><linearGradient
       id="linearGradient301"><stop
         style="stop-color:#ffffff;stop-opacity:1;"
         offset="0.68779135"
         id="stop300" /><stop
         style="stop-color:#b2b2b2;stop-opacity:1;"
         offset="0.68779135"
         id="stop301" /></linearGradient><radialGradient
       xlink:href="#linearGradient301"
       id="radialGradient48"
       gradientUnits="userSpaceOnUse"
       gradientTransform="matrix(1.7015836,0,-3.2954374e-8,2.5971603,-75.625776,-55.022156)"
       cx="107.79296"
       cy="32.75127"
       fx="107.79296"
       fy="32.75127"
       r="3.75406" /><linearGradient
       xlink:href="#linearGradient2"
       id="linearGradient843"
       gradientUnits="userSpaceOnUse"
       gradientTransform="matrix(0.33069664,0,0,0.33333334,0.05022912,-33.866666)"
       x1="23.283487"
       y1="-36.247658"
       x2="23.283487"
       y2="-27.550001" /><linearGradient
       xlink:href="#linearGradient2"
       id="linearGradient844"
       gradientUnits="userSpaceOnUse"
       gradientTransform="matrix(0.33597004,0,0,0.33333334,-0.05022901,-33.866666)"
       x1="14.584153"
       y1="-36.251179"
       x2="14.584153"
       y2="-27.474903" /><linearGradient
       xlink:href="#linearGradient2"
       id="linearGradient845"
       gradientUnits="userSpaceOnUse"
       gradientTransform="matrix(0.33333334,0,0,0.33069657,1.5442047e-8,-33.950383)"
       x1="19.049999"
       y1="-31.75"
       x2="19.049999"
       y2="-12.7" /><linearGradient
       xlink:href="#linearGradient1-1"
       id="linearGradient562"
       x1="-0.05078125"
       y1="-44.5"
       x2="12.650391"
       y2="-44.5"
       gradientUnits="userSpaceOnUse" /><linearGradient
       xlink:href="#linearGradient1"
       id="linearGradient565"
       x1="103.2069"
       y1="31.749966"
       x2="112.37689"
       y2="31.749966"
       gradientUnits="userSpaceOnUse" /></defs><g
     id="layer15"
     style="display:inline"
     transform="translate(-12.699998,-38.099218)"><g
       id="g775"
       transform="translate(0.05078125,76.249609)"
       style="display:inline;stroke-width:1.00013;stroke-dasharray:none"><path
         id="path771"
         style="fill:#8a90a8;fill-opacity:1;stroke-width:1.00013;stroke-linecap:round;stroke-linejoin:round;stroke-dasharray:none"
         d="M 4.8496094,-49.849609 H 7.75 v 3.90039 L 6.3500002,-44.45 4.8496094,-45.949219 Z" /><path
         id="path772"
         style="fill:url(#linearGradient843);stroke-width:1.00012;stroke-linecap:round;stroke-linejoin:round;stroke-dasharray:none"
         d="m 11.650391,-45.949219 v 2.898438 L 7.75,-43.05 6.3500002,-44.449999 7.75,-45.949219 Z" /><path
         id="path773"
         style="fill:url(#linearGradient844);stroke-width:1.00013;stroke-linecap:round;stroke-linejoin:round;stroke-dasharray:none"
         d="m 0.94921875,-43.050781 v -2.898438 l 3.90039065,-0.0012 1.5003909,1.500394 -1.5003909,1.425032 z" /><path
         id="path774"
         style="fill:url(#linearGradient845);stroke-width:1.00012;stroke-linecap:round;stroke-linejoin:round;stroke-dasharray:none"
         d="M 4.8496094,-39.150391 H 7.75 V -43.05 l -1.3999998,-1.399999 -1.5003908,1.425032 z" /><path
         style="color:#000000;fill:url(#linearGradient562);stroke-linecap:round;stroke-linejoin:round;stroke-miterlimit:0;-inkscape-stroke:none;paint-order:fill markers stroke"
         d="m 4.3496094,-50.849609 c -0.2761172,6.1e-5 -0.4999393,0.223883 -0.5,0.5 v 3.398437 H 0.44921875 c -0.27611721,6.1e-5 -0.49993926,0.223883 -0.5,0.5 v 3.900391 c 6.074e-5,0.276117 0.22388279,0.499939 0.5,0.5 H 3.8496094 v 3.40039 c 6.07e-5,0.276117 0.2238828,0.499939 0.5,0.5 H 8.25 c 0.2761172,-6.1e-5 0.4999393,-0.223883 0.5,-0.5 v -3.40039 h 3.400391 c 0.276117,-6.1e-5 0.499939,-0.223883 0.5,-0.5 v -3.900391 c -6.1e-5,-0.276117 -0.223883,-0.499939 -0.5,-0.5 H 8.75 v -3.398437 c -6.07e-5,-0.276117 -0.2238828,-0.499939 -0.5,-0.5 z m 0.5,1 H 7.75 v 3.90039 h 3.900391 v 2.898438 H 7.75 v 3.90039 H 4.8496094 v -3.90039 H 0.94921875 v -2.898438 H 4.8496094 Z"
         id="path775" /></g></g><g
     id="layer8"
     style="display:inline"
     transform="translate(-114.3,-25.4)"><g
       id="g48"
       transform="matrix(0.97328752,0,0,0.93748577,13.850012,1.9773648)"><path
         style="color:#000000;display:inline;fill:url(#radialGradient48);stroke-linecap:round;stroke-linejoin:round;stroke-miterlimit:0;-inkscape-stroke:none;paint-order:fill markers stroke"
         d="m 104.0389,31.345644 v 2.392862 c 0,0 0.006,1.00841 0.48051,2.001493 0.47469,0.993084 1.334,1.943614 3.27382,1.943614 1.9398,0 2.79859,-0.95053 3.27329,-1.943614 0.47447,-0.993083 0.4805,-2.001493 0.4805,-2.001493 v -2.392862 h -2.45085 c -0.22027,0.583621 -0.66744,0.899597 -1.30454,0.899597 -0.60752,0 -1.03348,-0.358342 -1.27215,-0.899597 z"
         id="path44" /><path
         style="color:#000000;display:inline;fill:#ffffff;stroke-linecap:round;stroke-linejoin:round;stroke-miterlimit:0;-inkscape-stroke:none;paint-order:fill markers stroke"
         d="m 107.79163,28.678824 c -0.39165,0 -0.69182,0.314394 -0.69182,0.721 v 1.276634 c 0,0.406606 0.30017,0.721001 0.69182,0.721001 0.39165,0 0.69448,-0.314395 0.69448,-0.721001 v -1.276634 c 0,-0.406606 -0.30283,-0.721 -0.69448,-0.721 z"
         id="path45" /><path
         style="color:#000000;display:inline;fill:#ffffff;stroke-linecap:round;stroke-linejoin:round;stroke-miterlimit:0;-inkscape-stroke:none;paint-order:fill markers stroke"
         d="m 108.20152,25.816319 v 2.191666 c 0.60797,0.202693 1.10119,0.696241 1.10119,1.391839 v 1.097487 h 2.24431 V 28.50574 c -1e-5,-1.490761 -1.20061,-2.689421 -2.69137,-2.689421 z"
         id="path46" /><path
         style="color:#000000;display:inline;fill:#ff8335;fill-opacity:1;stroke-linecap:round;stroke-linejoin:round;stroke-miterlimit:0;-inkscape-stroke:none;paint-order:fill markers stroke"
         d="m 106.72868,25.816319 c -1.49077,0 -2.68978,1.19866 -2.68978,2.689421 v 1.991571 h 2.24378 v -1.097487 c 0,-0.696288 0.49282,-1.189725 1.10172,-1.391839 v -2.191666 z"
         id="path47" /><path
         id="path48"
         style="color:#000000;display:inline;fill:url(#linearGradient565);stroke:none;stroke-linecap:round;stroke-linejoin:round;stroke-miterlimit:0;-inkscape-stroke:none;paint-order:fill markers stroke"
         d="m 106.72868,24.984523 c -1.93985,0 -3.52178,1.581371 -3.52178,3.521217 v 5.232766 c 0,0 -0.005,1.171679 0.56281,2.359237 0.56765,1.187559 1.79397,2.417667 4.02352,2.417667 2.22954,0 3.45533,-1.230108 4.02298,-2.417667 0.56765,-1.187559 0.56068,-2.359237 0.56068,-2.359237 V 28.50574 c 0,-1.939846 -1.58139,-3.521217 -3.52124,-3.521217 z m 0,0.831796 h 0.65572 v 2.191666 c -0.6089,0.202114 -1.10172,0.695551 -1.10172,1.391839 v 1.097487 H 104.0389 V 28.50574 c 0,-1.490762 1.19901,-2.689421 2.68978,-2.689421 z m 1.47284,0 h 0.65413 c 1.49076,0 2.69136,1.198659 2.69137,2.689421 v 1.991571 h -2.24431 v -1.097487 c 0,-0.695598 -0.49322,-1.189146 -1.10119,-1.391839 z m -0.40989,2.862505 c 0.39165,0 0.69448,0.314394 0.69448,0.721 v 1.276634 c 0,0.406606 -0.30283,0.721001 -0.69448,0.721001 -0.39165,0 -0.69182,-0.314395 -0.69182,-0.721001 v -1.276634 c 0,-0.406606 0.30017,-0.721 0.69182,-0.721 z m 3.75539,2.666269 v 2.393413 c 0,0 -0.006,1.008409 -0.4805,2.001493 -0.4747,0.993085 -1.33348,1.943614 -3.27329,1.943614 -1.93982,0 -2.79913,-0.950529 -3.27382,-1.943614 -0.47469,-0.993084 -0.48051,-2.001493 -0.48051,-2.001493 v -2.392862 h 2.48058 c 0.23867,0.541255 0.66463,0.899597 1.27215,0.899597 0.6371,0 1.08427,-0.315976 1.30454,-0.899597 z" /></g></g></svg>
